<?xml version="1.0" standalone="no"?>
<!DOCTYPE svg PUBLIC "-//W3C//DTD SVG 20010904//EN"
 "http://www.w3.org/TR/2001/REC-SVG-20010904/DTD/svg10.dtd">
<svg version="1.0" xmlns="http://www.w3.org/2000/svg"
 width="440.000000pt" height="440.000000pt" viewBox="0 0 440.000000 440.000000"
 preserveAspectRatio="xMidYMid meet">
<metadata>
Created by potrace 1.11, written by Peter Selinger 2001-2013
</metadata>
<g transform="translate(0.000000,440.000000) scale(0.100000,-0.100000)"
fill="#000000" stroke="none">
<path d="M0 4339 c0 -56 1 -59 25 -59 23 0 30 10 26 34 -1 5 7 6 19 3 11 -3
23 -1 26 5 4 6 26 7 54 3 43 -6 49 -4 55 14 10 33 96 21 101 -13 1 -11 10 -24
20 -29 23 -13 93 -17 100 -6 3 5 20 9 37 9 18 0 42 7 54 15 12 9 28 14 35 13
8 -2 13 7 13 22 0 15 -5 24 -12 23 -7 -2 -18 -4 -24 -5 -6 -2 -14 3 -17 11 -3
10 0 12 11 8 9 -3 19 -2 22 3 4 6 -104 9 -270 9 l-275 -1 0 -59z m25 -19 c3
-5 1 -10 -4 -10 -6 0 -11 5 -11 10 0 6 2 10 4 10 3 0 8 -4 11 -10z"/>
<path d="M611 4315 c0 -69 3 -85 16 -85 10 0 13 -6 9 -16 -4 -10 -2 -13 6 -8
8 5 9 0 5 -15 -4 -18 -3 -20 9 -10 9 7 14 8 14 1 0 -16 -18 -24 -32 -16 -13 8
-151 9 -165 1 -4 -2 -19 0 -33 6 -37 15 -60 18 -60 8 0 -5 -80 -9 -179 -9 -98
0 -184 -3 -190 -6 -6 -4 -11 -23 -11 -42 0 -34 0 -34 45 -34 25 0 45 -5 45
-10 0 -6 8 -5 19 2 16 9 25 9 44 -1 14 -8 39 -10 61 -7 20 3 74 6 119 6 183
-1 241 1 260 12 27 14 72 20 132 18 63 -3 190 -4 325 -2 58 0 119 -1 135 -2
17 -2 35 -1 40 3 17 10 140 7 147 -4 5 -6 11 -6 18 1 12 12 75 3 115 -16 28
-13 84 -20 90 -11 2 5 18 8 35 9 19 0 28 -3 24 -10 -4 -7 -2 -8 5 -4 6 4 8 12
5 18 -4 7 2 7 17 2 22 -7 55 -8 76 -2 4 1 25 -4 46 -11 26 -9 42 -10 50 -2 33
27 208 53 244 37 30 -14 29 -24 -2 -18 -18 3 -25 0 -25 -12 0 -9 4 -16 9 -16
5 0 7 -9 4 -20 -3 -11 -12 -20 -19 -20 -10 0 -14 -13 -14 -40 0 -29 -5 -42
-19 -50 -27 -14 -51 -13 -51 4 0 8 -6 16 -13 19 -15 6 -41 -29 -32 -43 3 -5
-7 -13 -22 -16 -15 -4 -44 -15 -63 -25 -61 -30 -78 -32 -85 -9 -3 11 -15 20
-25 20 -28 0 -34 -17 -10 -30 16 -9 18 -15 10 -31 -6 -11 -16 -16 -22 -13 -6
4 -8 3 -5 -3 4 -6 -1 -17 -10 -24 -14 -12 -16 -12 -8 1 4 8 -4 4 -18 -9 -19
-17 -27 -20 -27 -10 0 8 -3 10 -8 4 -8 -11 -93 -14 -85 -2 7 12 -12 8 -25 -5
-9 -9 -12 -9 -12 0 0 8 -9 10 -26 6 -20 -5 -25 -4 -19 6 4 7 2 16 -5 20 -15 9
-5 80 10 80 6 0 10 4 10 10 0 5 -7 7 -15 4 -18 -7 -18 -6 -4 34 9 26 8 35 -4
47 -21 21 -27 19 -27 -9 0 -13 -4 -26 -10 -28 -5 -1 -10 -33 -11 -70 -1 -37
-5 -65 -10 -63 -4 3 -9 -3 -12 -12 -2 -11 -9 2 -17 30 -7 27 -16 45 -19 40 -3
-5 -11 -9 -18 -8 -15 0 -30 15 -15 15 7 0 12 7 12 15 0 20 -13 19 -33 -3 -10
-11 -14 -26 -10 -42 5 -19 3 -22 -11 -17 -46 18 -66 19 -66 4 0 -8 -6 -18 -12
-20 -10 -4 -10 -6 0 -6 6 -1 12 -10 12 -22 0 -11 -4 -17 -10 -14 -5 3 -20 1
-32 -6 -16 -9 -23 -9 -26 0 -2 6 -15 11 -28 11 -18 0 -23 4 -18 13 6 9 4 9 -8
-1 -8 -7 -23 -10 -32 -6 -9 3 -16 1 -16 -6 0 -6 -4 -8 -10 -5 -5 3 -10 11 -10
16 0 6 5 7 10 4 6 -3 10 0 10 7 0 13 -44 37 -75 42 -8 1 -17 5 -20 8 -11 10
-65 -23 -66 -40 0 -11 -2 -12 -6 -4 -2 6 -9 12 -15 12 -6 0 -8 -7 -4 -15 4
-11 -1 -15 -19 -15 -33 0 -41 18 -13 29 26 11 26 11 -24 17 -32 3 -38 1 -38
-16 0 -10 -4 -22 -10 -25 -9 -5 -16 49 -12 95 6 70 8 167 4 178 -2 6 -9 12
-14 12 -6 0 -7 -7 -4 -16 3 -8 2 -12 -4 -9 -6 3 -10 0 -10 -7 0 -11 -2 -11 -9
0 -4 8 -7 -8 -7 -38 1 -29 -2 -54 -6 -56 -5 -3 -8 11 -8 30 0 20 -4 36 -10 36
-11 0 -14 -25 -11 -75 1 -17 -2 -25 -6 -18 -6 8 -13 8 -27 -3 -19 -14 -19 -14
2 -14 15 0 24 -8 28 -25 3 -14 13 -25 21 -25 9 0 13 -6 10 -15 -4 -8 -2 -17 4
-20 5 -4 7 -11 3 -16 -3 -6 -12 -3 -19 8 -7 10 -11 21 -9 25 2 3 -10 1 -27 -5
-25 -9 -33 -9 -36 1 -3 6 -12 12 -21 12 -15 -1 -15 -2 1 -11 9 -5 17 -13 17
-18 0 -12 -104 -1 -128 15 -12 8 -27 12 -33 8 -6 -3 -5 4 3 16 11 18 11 23 -6
35 -14 11 -23 12 -33 4 -7 -7 -28 -9 -48 -6 -19 3 -35 2 -35 -4 0 -5 -4 -9
-10 -9 -5 0 -10 6 -10 13 0 19 -41 36 -65 27 -12 -4 -27 -15 -34 -24 -19 -22
-24 -20 -45 14 -14 25 -16 37 -7 63 9 26 8 29 -2 16 -6 -9 -21 -42 -31 -73
-21 -61 -15 -91 17 -91 9 0 19 -4 23 -8 7 -7 -58 -12 -99 -7 -10 1 -25 -4 -32
-10 -12 -10 -17 -8 -24 11 -7 18 -10 5 -10 -54 -1 -49 3 -76 9 -72 18 11 73
15 250 20 96 3 204 7 240 10 67 6 185 -19 174 -37 -3 -5 6 -7 20 -4 19 3 26 0
26 -10 0 -10 -6 -13 -18 -10 -9 3 -31 7 -48 9 -17 2 -36 7 -43 11 -6 4 -11 1
-11 -9 0 -8 11 -20 24 -27 18 -7 27 -22 31 -50 5 -28 14 -42 30 -50 21 -9 22
-14 13 -42 -5 -17 -13 -39 -18 -48 -6 -11 -6 -19 0 -23 6 -3 10 -10 10 -15 0
-11 -41 -10 -55 1 -12 9 -20 9 -120 9 -78 0 -108 7 -99 21 3 5 14 7 24 4 15
-5 17 -2 13 15 -6 24 -5 23 -55 8 -26 -8 -35 -14 -26 -20 21 -13 -12 -29 -47
-23 -56 10 -130 16 -198 18 -37 1 -67 5 -67 9 0 16 -40 7 -50 -11 -13 -25 -13
-131 0 -131 18 0 50 -39 44 -55 -4 -8 -18 -15 -33 -15 l-26 -1 27 -20 c21 -16
28 -29 28 -55 0 -24 -5 -34 -15 -34 -8 0 -15 -5 -15 -11 0 -5 -5 -7 -10 -4 -6
4 -10 -30 -10 -94 0 -56 4 -103 10 -106 5 -3 10 3 10 14 0 13 9 21 28 26 34 7
96 -2 100 -16 5 -13 42 -12 42 2 0 5 -4 8 -8 5 -4 -2 -14 -1 -22 4 -12 7 -12
12 -2 22 6 6 12 19 12 28 0 13 -2 13 -11 0 -9 -12 -10 -11 -4 5 4 11 8 40 11
64 2 24 6 46 8 49 3 2 0 16 -5 30 -8 21 -7 29 6 38 9 7 18 29 19 50 2 22 4 42
5 47 1 8 35 10 44 1 3 -3 2 -17 -3 -30 -6 -16 -6 -24 1 -24 5 0 9 -6 8 -12 -4
-34 2 -47 17 -41 12 4 15 1 12 -13 -2 -10 -8 -19 -15 -19 -6 0 -15 -3 -19 -7
-4 -5 -2 -8 5 -8 7 0 9 -4 6 -10 -3 -5 3 -10 14 -10 27 0 35 -17 15 -28 -13
-7 -14 -14 -6 -27 9 -17 10 -17 23 3 8 12 22 22 32 22 10 0 15 -5 12 -10 -4
-6 -10 -8 -15 -5 -5 3 -11 -4 -15 -15 -3 -11 -10 -20 -15 -20 -5 0 -15 -3 -23
-6 -9 -3 -17 0 -20 8 -2 7 -3 4 -1 -8 4 -21 -18 -26 -44 -10 -7 4 -12 2 -12
-8 0 -8 5 -16 11 -18 9 -3 9 -10 0 -26 -6 -12 -10 -23 -9 -23 18 -7 211 -6
246 2 68 14 102 17 102 7 0 -4 12 -8 28 -8 23 0 71 -19 49 -20 -5 0 -1 -7 8
-16 22 -23 49 -11 35 16 -11 21 3 29 15 9 4 -6 13 -8 21 -5 8 3 14 1 14 -4 0
-6 5 -10 10 -10 6 0 10 8 10 17 0 13 3 14 12 5 7 -7 19 -12 27 -12 11 0 10 4
-5 15 -18 14 -17 14 12 15 16 0 35 -5 42 -12 8 -8 57 -13 139 -14 144 -3 178
-7 178 -20 0 -5 -14 -10 -32 -12 -17 -2 -37 -9 -43 -17 -6 -8 -18 -11 -26 -8
-8 3 -22 2 -31 -2 -10 -4 -36 -9 -58 -10 -22 -1 -43 -3 -47 -4 -3 0 -17 -18
-29 -38 -13 -21 -28 -41 -33 -45 -7 -5 -5 -13 6 -24 12 -12 21 -14 30 -7 30
24 88 25 134 3 24 -12 46 -26 50 -31 3 -5 13 -5 25 1 10 6 19 7 19 3 0 -4 6 1
13 12 10 12 16 14 21 7 13 -21 23 -13 18 13 -2 15 0 25 7 25 6 0 11 -9 11 -19
0 -11 3 -27 7 -37 4 -11 3 -15 -5 -10 -7 4 -9 -4 -5 -29 6 -39 12 -36 -80 -40
-44 -3 -46 -2 -30 12 14 11 11 11 -9 -1 -39 -23 -95 -21 -110 4 -7 11 -18 20
-25 20 -7 0 -13 -9 -13 -20 0 -28 -25 -25 -55 8 -20 21 -25 34 -21 59 3 24 0
32 -13 36 -27 7 -32 53 -10 73 11 10 19 25 19 36 0 15 -5 17 -26 12 -18 -5
-25 -3 -20 4 3 6 2 13 -4 17 -5 3 -10 -1 -10 -10 0 -9 -5 -13 -10 -10 -6 3
-13 0 -16 -8 -5 -13 -9 -13 -32 -1 -26 13 -27 13 -30 -14 -1 -15 -8 -37 -13
-48 -8 -15 -8 -27 -1 -41 8 -15 6 -27 -8 -50 -15 -25 -23 -30 -44 -26 -14 3
-26 10 -26 15 0 6 -9 8 -20 5 -11 -3 -18 -2 -15 3 3 4 -2 13 -10 20 -19 16
-49 5 -41 -15 5 -13 -4 -19 -25 -17 -3 1 -4 -11 -2 -26 4 -21 2 -24 -6 -12 -8
12 -16 13 -41 3 -27 -10 -30 -9 -30 7 0 10 -5 22 -11 25 -6 4 -9 -3 -7 -21 3
-25 -1 -29 -36 -36 -29 -6 -42 -5 -48 4 -13 22 -9 30 12 23 15 -5 20 -2 20 12
-1 27 -26 57 -36 42 -4 -7 -2 -15 4 -17 7 -2 4 -11 -8 -25 -11 -11 -19 -28
-18 -36 2 -10 -6 -17 -21 -19 -14 -2 -21 0 -17 6 3 6 0 16 -7 24 -8 7 -13 26
-13 41 2 27 -8 32 -38 21 -9 -3 -13 -11 -10 -16 4 -6 -2 -8 -15 -3 -16 5 -21
2 -21 -13 0 -26 -31 -38 -46 -18 -6 9 -14 13 -17 9 -4 -3 -7 1 -7 10 0 9 -4
17 -9 17 -30 0 -19 -56 12 -64 21 -6 21 -7 -7 -21 -15 -8 -35 -15 -43 -15 -31
0 -8 -35 25 -38 17 -2 32 -8 32 -14 0 -6 6 -6 15 2 12 10 15 10 15 0 0 -10 3
-10 15 0 12 10 15 10 15 -3 0 -9 -16 -21 -37 -28 -34 -11 -35 -13 -18 -25 22
-16 92 -18 129 -4 18 7 25 16 23 32 -4 37 35 48 138 42 50 -4 135 -7 189 -8
l100 -1 12 -30 c7 -16 13 -38 14 -47 0 -20 -26 -25 -32 -6 -3 9 -9 8 -22 -5
-23 -23 -29 -22 -21 6 5 19 4 20 -7 7 -9 -11 -32 -16 -68 -17 -30 0 -62 -2
-70 -4 -10 -3 -15 4 -15 18 0 13 -4 23 -10 24 -5 0 -18 5 -28 11 -12 6 -23 6
-32 -2 -18 -15 -95 -21 -95 -8 0 6 -6 5 -15 -2 -8 -7 -15 -18 -14 -24 0 -6 3
-5 6 2 3 9 10 4 19 -14 12 -22 12 -29 2 -36 -10 -6 -8 -8 5 -8 9 0 17 5 17 10
0 6 7 10 16 10 11 0 14 -5 10 -16 -3 -9 -6 -18 -6 -20 0 -9 -33 -3 -61 11 -26
14 -31 14 -44 1 -8 -8 -11 -16 -6 -18 17 -7 21 -55 5 -69 -20 -16 -34 2 -34
45 0 16 -3 27 -6 23 -3 -3 -6 -22 -6 -41 0 -32 -2 -35 -20 -25 -24 13 -80 2
-58 -11 9 -5 20 -4 29 3 12 9 13 9 7 0 -4 -8 -2 -13 7 -13 12 0 23 -16 45 -64
3 -4 -6 -5 -19 0 -13 4 -34 7 -46 6 -17 -1 -23 4 -23 18 0 11 -9 34 -21 52
-12 18 -18 25 -15 15 3 -11 2 -16 -4 -12 -15 9 -12 38 5 61 16 21 21 89 6 79
-6 -3 -9 -13 -8 -23 0 -10 -7 -36 -17 -57 -15 -31 -17 -45 -9 -66 9 -23 8 -31
-8 -45 -23 -20 -28 -119 -6 -127 10 -4 10 -6 0 -6 -8 -1 -13 -14 -12 -33 l0
-33 16 33 c18 35 59 45 69 17 4 -8 10 -15 16 -15 5 0 6 5 3 10 -3 6 -1 10 5
10 6 0 13 -7 16 -15 10 -25 27 -17 22 10 -4 17 -1 25 8 25 8 0 14 -3 14 -7 0
-5 16 -9 34 -10 29 -1 34 2 29 15 -5 16 -5 16 12 0 21 -19 13 -51 -10 -42 -10
4 -15 0 -15 -10 0 -13 7 -15 30 -11 23 4 30 2 30 -10 0 -9 -4 -13 -10 -10 -5
3 -10 -1 -10 -9 0 -8 9 -20 20 -26 17 -9 22 -7 29 14 6 13 16 26 23 29 8 3 2
9 -15 18 -27 12 -28 14 -10 26 15 12 16 15 3 23 -8 5 -18 6 -22 4 -4 -3 -8 -1
-8 5 0 17 17 21 29 7 10 -12 19 -12 57 0 24 7 42 10 40 5 -3 -4 8 -8 25 -9 16
0 27 3 25 7 -10 15 55 4 71 -12 13 -13 14 -19 3 -31 -7 -9 -18 -16 -24 -16
-11 -1 -56 -34 -56 -42 0 -2 15 -2 33 0 22 2 39 -2 49 -12 19 -18 31 -7 42 35
3 15 13 30 22 33 23 9 30 0 15 -18 -13 -16 -6 -56 12 -67 5 -4 6 -13 1 -20
-10 -17 -5 -62 8 -70 15 -10 16 -58 1 -70 -20 -18 -44 18 -39 59 3 28 1 32
-20 32 -12 0 -29 -8 -36 -19 -9 -13 -24 -18 -49 -17 -26 2 -36 -1 -32 -10 2
-7 11 -10 18 -8 9 4 13 -1 12 -15 -1 -21 -29 -37 -45 -27 -5 3 -7 19 -4 37 3
22 1 30 -7 25 -6 -4 -9 -12 -6 -17 9 -14 -2 -11 -19 7 -14 14 -17 13 -27 -9
-12 -27 -39 -32 -39 -8 -1 14 -2 14 -10 0 -7 -12 -22 -16 -59 -14 -26 1 -53 5
-60 9 -17 11 -13 -20 5 -38 8 -9 11 -16 5 -16 -19 0 -42 32 -37 54 3 11 0 8
-7 -7 -9 -22 -17 -28 -34 -24 -13 2 -25 1 -28 -3 -2 -3 -23 -5 -47 -4 -64 3
-68 -1 -68 -63 0 -53 1 -55 24 -51 18 4 23 1 19 -10 -5 -11 -1 -13 15 -8 18 6
119 10 160 7 7 -1 10 -6 6 -12 -3 -6 0 -15 7 -20 15 -9 13 -9 -42 -13 -31 -2
-58 -68 -56 -138 2 -65 -10 -76 -53 -46 -16 11 -35 15 -52 11 -28 -5 -28 -6
-28 -83 0 -66 3 -79 18 -84 24 -7 207 0 221 8 6 4 11 2 11 -4 0 -8 6 -7 21 1
17 9 23 8 30 -2 5 -9 9 -9 9 -3 0 7 9 14 20 17 11 3 20 1 20 -3 0 -4 9 -6 21
-3 16 5 20 2 17 -13 -2 -13 4 -20 20 -22 25 -4 27 -17 9 -47 -15 -26 -72 -32
-62 -8 5 15 4 15 -13 0 -10 -9 -22 -14 -25 -10 -4 3 -7 1 -7 -6 0 -8 -7 -11
-15 -7 -8 3 -15 0 -15 -7 -1 -7 -7 2 -15 18 -8 19 -14 24 -14 13 -1 -24 -51
-51 -51 -28 0 6 10 10 23 10 20 0 20 1 -7 15 -39 21 -53 19 -62 -7 l-7 -23 -8
23 c-5 12 -14 22 -20 22 -7 0 -10 -3 -6 -6 10 -11 -25 -42 -43 -37 -28 8 -32
-13 -4 -27 15 -8 23 -19 19 -28 -3 -8 -1 -20 5 -27 8 -10 5 -17 -11 -29 -25
-17 -43 -12 -35 10 3 8 1 14 -3 14 -13 0 -22 -28 -11 -35 15 -9 12 -32 -4 -38
-11 -4 -13 3 -10 31 2 21 -1 44 -6 52 -7 10 -10 -19 -10 -87 0 -94 2 -103 19
-103 19 0 31 -18 31 -46 0 -11 -4 -12 -19 -4 -11 5 -22 10 -25 10 -3 0 -6 -83
-6 -185 l0 -186 68 6 c37 3 82 7 101 9 18 1 39 -3 46 -11 17 -16 26 -17 20 0
-4 9 16 13 77 15 45 2 86 5 90 8 4 3 8 -2 8 -11 0 -13 10 -16 56 -13 30 2 57
1 59 -3 8 -12 -31 -39 -58 -41 -15 -1 -27 -6 -27 -11 0 -5 -8 -3 -17 4 -15 12
-16 12 -10 -3 4 -12 2 -15 -9 -11 -8 3 -14 -1 -14 -8 0 -10 -3 -10 -8 -3 -4 6
-20 11 -37 10 -16 -1 -36 3 -43 8 -18 13 -122 17 -122 5 0 -5 -4 -9 -10 -9 -5
0 -7 6 -4 14 11 30 -14 24 -30 -7 -9 -19 -16 -25 -16 -14 0 19 -11 22 -27 6
-7 -7 -15 -6 -26 5 -13 13 -20 14 -41 4 l-26 -11 0 -154 0 -153 29 0 c32 0 48
-14 30 -26 -8 -4 -7 -9 2 -15 10 -6 13 -27 11 -74 l-3 -65 68 0 68 1 -36 32
c-30 27 -37 40 -41 83 -3 37 -1 56 11 70 18 21 81 32 81 15 0 -11 32 -8 70 6
44 16 63 11 100 -27 27 -28 34 -42 26 -48 -12 -10 -59 -9 -93 2 -26 8 -32 -15
-10 -36 11 -10 12 -20 1 -55 l-13 -43 1449 0 1449 0 11 43 c6 23 17 62 25 87
8 25 24 85 35 135 11 50 29 115 40 147 41 120 54 299 27 384 -20 64 -64 274
-73 344 -19 161 -99 369 -175 455 -33 37 -114 192 -125 240 -10 42 -20 52 -60
59 -19 4 -32 11 -29 17 4 5 2 9 -3 9 -20 0 -22 34 -3 70 11 21 17 41 14 44 -4
3 -1 6 6 6 7 0 9 5 5 12 -4 7 -9 28 -11 48 -2 33 -2 33 8 10 l10 -25 18 21 c9
12 34 24 55 28 31 6 35 10 26 21 -10 12 -9 16 1 19 8 2 21 7 29 10 8 2 -18 3
-57 2 -62 -3 -73 -1 -73 13 0 14 -2 14 -11 1 -8 -12 -10 -8 -6 15 3 17 2 58
-2 92 -5 40 -4 60 3 56 5 -4 7 1 3 10 -3 9 0 29 8 44 8 15 12 36 9 48 -3 12 5
31 21 49 28 32 33 59 10 50 -13 -5 -15 9 -15 89 0 52 -4 97 -9 99 -4 2 -5 27
-1 56 3 28 3 52 -2 52 -4 0 -8 5 -8 11 0 5 5 7 12 3 8 -5 9 -2 4 12 -7 16 -9
163 -4 214 1 8 -1 33 -5 55 -3 22 -3 32 -1 23 6 -21 13 -22 34 -7 13 9 12 10
-2 5 -11 -3 -18 0 -19 7 -1 23 -8 49 -13 54 -3 4 2 12 11 18 15 11 15 15 4 29
-7 9 -17 14 -21 11 -5 -3 -11 -1 -15 5 -4 6 8 10 30 10 20 0 44 4 54 9 9 6 53
12 97 15 70 4 156 15 161 20 1 1 -6 12 -16 25 -13 17 -29 23 -59 25 -48 2 -61
11 -43 29 9 9 18 8 41 -5 27 -15 35 -13 28 10 -2 4 -6 6 -10 4 -11 -3 -10 16
1 23 5 3 13 1 16 -5 4 -6 15 -8 25 -5 15 5 17 2 13 -15 -6 -21 4 -24 42 -14
17 4 20 12 17 48 -3 30 1 48 13 59 23 24 3 21 -24 -2 -13 -11 -30 -17 -39 -14
-21 9 -64 8 -85 0 -11 -4 -17 -1 -17 8 0 8 5 15 10 15 6 0 10 6 10 13 0 8 9
24 20 37 11 13 20 30 20 38 0 21 -38 -32 -70 -96 -14 -28 -33 -53 -42 -55 -10
-3 -18 -11 -18 -19 0 -10 3 -9 10 2 5 8 10 11 10 5 -1 -16 -26 -45 -40 -45 -7
0 -10 7 -6 15 3 8 1 15 -5 15 -6 0 -16 -14 -22 -31 -12 -30 -13 -30 -62 -25
-27 3 -54 6 -60 7 -5 1 -16 0 -23 -2 -8 -3 -23 26 -41 77 -16 44 -44 112 -62
150 -19 38 -35 72 -37 77 -2 4 10 7 26 7 44 0 92 11 92 22 0 5 -4 7 -9 3 -5
-3 -12 -1 -15 4 -3 5 3 11 14 14 14 4 20 0 20 -11 0 -13 2 -14 9 -4 12 19 82
23 100 5 12 -13 12 -16 0 -24 -10 -6 -7 -9 13 -9 29 0 37 12 30 46 -4 20 -8
21 -105 17 -103 -4 -149 6 -118 26 8 5 12 15 9 23 -7 16 13 36 30 30 6 -2 12
4 12 12 0 12 6 15 24 10 16 -4 27 -1 33 9 4 9 21 19 37 23 26 6 29 5 23 -15
-3 -14 1 -24 12 -30 26 -15 42 2 44 47 0 22 4 39 8 36 4 -2 9 2 12 8 5 16 19
-129 15 -161 -2 -17 2 -24 15 -27 10 -1 24 -10 31 -20 9 -11 18 -14 27 -8 8 4
24 7 37 5 12 -1 22 1 22 6 0 4 43 8 95 9 72 0 95 -3 95 -13 0 -7 -11 -13 -25
-13 -14 0 -25 -4 -25 -10 0 -5 4 -10 9 -10 5 0 11 -14 15 -31 3 -17 15 -42 26
-56 11 -14 20 -34 20 -45 0 -11 11 -22 25 -28 14 -5 25 -13 25 -17 0 -5 16 -9
35 -10 29 -2 36 2 41 23 3 13 10 24 15 24 5 0 7 12 5 26 -5 25 -4 25 19 10 18
-12 30 -13 50 -6 16 6 25 6 25 0 0 -6 5 -10 11 -10 5 0 7 6 4 13 -4 6 0 4 8
-6 15 -18 15 -18 22 2 3 12 12 21 20 21 24 0 -12 57 -40 64 -17 4 -25 14 -26
29 0 12 -3 17 -6 10 -6 -16 -43 5 -43 24 0 7 -4 13 -10 13 -5 0 -10 6 -10 14
0 8 -13 19 -30 25 -26 8 -30 7 -31 -7 0 -10 -3 -12 -6 -4 -2 6 -11 12 -19 12
-9 0 -13 -3 -11 -7 6 -10 -179 -11 -188 -1 -4 4 -13 4 -21 1 -8 -3 -14 1 -14
8 0 11 -3 11 -10 -1 -6 -10 -10 -11 -10 -2 0 14 -47 17 -52 2 -4 -13 -78 5
-90 22 -5 7 -7 52 -4 100 3 52 1 90 -5 94 -6 3 -5 12 3 22 12 15 11 16 -5 3
-14 -12 -22 -12 -41 -1 -29 15 -215 20 -234 6 -8 -6 -17 -5 -24 2 -18 18 -27
14 -21 -9 5 -17 2 -20 -13 -15 -20 6 -21 -2 -23 -123 0 -40 -20 -103 -35 -113
-19 -13 -120 106 -121 141 0 9 -7 16 -15 16 -8 0 -21 6 -29 13 -8 8 -23 11
-35 8 -12 -3 -34 -6 -49 -6 -16 0 -26 -4 -23 -9 8 -13 -47 -21 -59 -9 -7 8 -6
8 4 3 10 -5 12 -4 7 4 -4 6 -12 9 -17 5 -6 -3 -16 2 -23 11 -10 14 -17 15 -33
6 -14 -7 -23 -7 -25 -1 -2 6 -13 5 -28 -3 -23 -12 -82 -8 -96 6 -13 13 -15 78
-3 105 12 28 18 31 79 36 36 4 82 7 103 8 21 1 40 5 43 9 6 10 245 -1 266 -12
11 -6 25 -6 36 -1 17 9 37 11 192 15 41 2 81 6 89 11 8 5 16 4 20 -3 9 -14 41
-4 41 13 -1 26 -18 33 -87 32 -56 -1 -72 -4 -70 -15 1 -8 -4 -16 -11 -18 -7
-3 -10 1 -6 10 5 13 -4 15 -54 11 -66 -5 -95 10 -91 50 3 46 -1 55 -22 51 -26
-5 -59 15 -52 32 4 10 9 11 18 3 11 -9 18 -5 32 16 13 20 14 29 5 32 -15 5
-16 32 0 32 6 0 8 3 5 7 -4 3 -18 -4 -31 -16 -14 -13 -29 -20 -35 -17 -22 14
-60 -6 -70 -36 -13 -38 -14 -58 -1 -38 7 11 11 9 19 -13 6 -16 15 -26 20 -23
5 3 12 -1 15 -10 4 -11 2 -15 -8 -11 -9 4 -12 0 -9 -12 6 -24 -35 -21 -49 2
-10 19 -38 23 -38 6 0 -6 -7 -8 -15 -5 -9 3 -18 -1 -21 -9 -7 -18 -50 -20 -60
-3 -5 8 -2 9 10 5 14 -5 17 -3 12 8 -3 8 -2 15 2 15 4 0 8 23 10 51 1 28 6 59
11 68 13 25 2 41 -28 41 -25 0 -28 -4 -29 -36 -1 -20 -4 -44 -7 -54 -3 -9 1
-30 9 -46 10 -18 12 -30 5 -34 -5 -4 -7 -14 -3 -24 6 -14 2 -16 -22 -11 -16 4
-34 8 -41 10 -7 2 -15 0 -19 -6 -3 -5 -15 -7 -26 -3 -11 3 -18 2 -15 -3 3 -5
-10 -10 -29 -10 -19 -1 -37 3 -40 8 -3 5 -13 9 -22 8 -14 0 -13 -2 3 -9 13 -6
-12 -9 -75 -10 -52 -1 -115 -3 -140 -5 -27 -2 -48 1 -52 8 -5 8 -8 6 -8 -5 0
-14 -4 -16 -24 -8 -13 5 -27 6 -30 3 -3 -4 -6 3 -6 15 0 11 -4 23 -9 26 -5 4
-7 -3 -4 -13 6 -23 -15 -23 -42 -1 -14 12 -18 12 -26 -1 -8 -12 -10 -12 -19 1
-7 11 -10 12 -10 2 0 -7 -7 -20 -15 -28 -8 -9 -15 -11 -15 -6 0 6 -11 7 -27 3
-31 -8 -73 8 -73 28 0 7 -6 11 -14 8 -8 -3 -16 -4 -19 -1 -4 5 18 141 28 175
5 16 1 19 -28 19 -27 0 -36 -5 -46 -26 -10 -22 -14 -24 -26 -14 -20 16 -32 5
-16 -14 10 -11 7 -16 -16 -25 -20 -8 -22 -10 -5 -7 12 2 22 0 22 -5 0 -5 5 -9
10 -9 6 0 10 9 10 20 0 21 15 27 25 10 3 -5 12 -7 20 -3 10 3 15 -2 15 -17 0
-12 -4 -18 -11 -15 -7 5 -8 -5 -4 -29 9 -47 1 -72 -19 -54 -8 7 -12 16 -10 19
2 3 -10 18 -25 33 -28 27 -30 27 -54 12 -22 -15 -25 -15 -30 -1 -4 8 -2 15 2
15 5 0 12 7 15 16 4 9 2 13 -5 8 -7 -4 -10 1 -7 12 2 10 14 21 28 25 14 4 19
7 13 8 -7 1 -13 5 -13 11 0 5 14 8 30 6 20 -2 29 1 27 8 -3 8 -127 12 -435 14
l-432 2 1 -85z m776 49 c-3 -3 -12 -4 -19 -1 -8 3 -5 6 6 6 11 1 17 -2 13 -5z
m-113 -46 c-3 -13 -8 -24 -9 -26 -5 -6 -35 11 -35 20 0 5 4 6 10 3 6 -3 7 1 4
9 -4 12 0 16 16 16 18 0 20 -4 14 -22z m1375 -92 c-1 -17 -2 -17 -6 -3 -2 9
-9 15 -14 12 -5 -4 -9 1 -9 9 0 10 6 13 15 10 8 -4 14 -16 14 -28z m-1849 5
c14 -5 19 -10 12 -10 -9 -1 -11 -8 -6 -23 6 -22 5 -21 -23 5 -16 15 -36 27
-45 27 -9 0 -20 5 -23 10 -7 12 48 6 85 -9z m668 -7 c9 -10 4 -15 -21 -23 -27
-9 -29 -9 -15 2 12 9 14 17 7 24 -6 6 -5 10 4 10 7 0 18 -6 25 -13z m32 -44
c0 -11 -7 -20 -15 -20 -8 0 -15 9 -15 20 0 11 7 20 15 20 8 0 15 -9 15 -20z
m-65 -9 c3 -5 1 -12 -5 -16 -5 -3 -10 1 -10 9 0 18 6 21 15 7z m1375 -152 c0
-6 -4 -7 -10 -4 -5 3 -10 11 -10 16 0 6 5 7 10 4 6 -3 10 -11 10 -16z m-20
-131 c0 -5 -4 -8 -10 -8 -5 0 -10 10 -10 23 0 18 2 19 10 7 5 -8 10 -18 10
-22z m-1353 -10 c-3 -8 -6 -5 -6 6 -1 11 2 17 5 13 3 -3 4 -12 1 -19z m-1032
-28 c4 -6 12 -7 18 -4 9 5 9 4 1 -5 -8 -9 -18 -8 -40 4 -26 13 -26 15 -7 15
12 0 25 -5 28 -10z m-199 -30 c9 0 12 -4 9 -10 -12 -19 -35 -10 -34 13 0 12 3
16 6 10 2 -7 11 -13 19 -13z m3312 -79 c3 -10 -3 -11 -29 -6 -19 5 -40 8 -46
8 -17 0 -17 14 -1 19 21 7 71 -7 76 -21z m-128 15 c0 -3 -4 -8 -10 -11 -5 -3
-10 -1 -10 4 0 6 5 11 10 11 6 0 10 -2 10 -4z m-593 -21 c0 -8 -6 -15 -13 -15
-8 0 -11 6 -8 15 4 8 9 15 13 15 4 0 8 -7 8 -15z m-1452 -38 c28 2 66 3 85 1
19 -1 63 -2 98 -3 34 0 62 -4 62 -8 0 -4 -15 -31 -33 -60 -18 -29 -36 -60 -40
-70 -4 -9 -15 -20 -24 -23 -10 -3 -27 -10 -38 -16 -17 -10 -18 -9 -8 4 15 18
7 28 -22 28 -11 0 -26 5 -32 11 -13 13 -36 3 -28 -12 4 -5 -8 -9 -24 -9 -29 0
-37 10 -31 35 1 6 3 16 3 23 0 15 13 16 22 2 4 -6 12 -7 18 -3 12 8 17 9 38
12 19 2 -1 19 -32 26 -18 4 -36 2 -45 -6 -8 -6 -17 -9 -21 -6 -3 4 -12 2 -19
-4 -9 -7 -19 -7 -33 1 -18 9 -21 8 -21 -10 0 -11 5 -20 10 -20 6 0 9 -3 8 -7
-1 -5 2 -18 6 -31 4 -13 6 -26 3 -28 -8 -8 -37 8 -37 21 0 15 -48 27 -56 14
-3 -5 -13 -3 -24 3 -10 7 -16 16 -13 21 7 12 -17 27 -44 27 -25 0 -32 16 -10
22 11 2 9 8 -6 23 -19 20 -19 20 -13 -2 4 -12 2 -24 -4 -28 -6 -3 -8 -10 -5
-15 12 -19 -29 -19 -47 0 -13 14 -31 20 -63 20 -25 0 -45 4 -45 8 0 4 -9 8
-20 9 -19 2 -26 -15 -21 -53 1 -7 -10 -15 -25 -18 -17 -5 -24 -12 -20 -21 3
-8 1 -15 -4 -15 -6 0 -10 7 -10 15 0 21 -18 19 -32 -5 -20 -31 -34 -24 -35 19
-2 41 8 56 42 63 11 2 24 12 30 23 9 18 20 20 115 20 60 0 108 -4 113 -10 4
-6 10 -5 16 3 4 8 14 12 22 11 8 -2 28 1 45 5 17 4 59 9 93 10 34 2 65 7 68
10 3 3 13 2 22 -3 9 -4 39 -6 66 -4z m2140 -1 c6 0 13 -5 17 -10 4 -6 12 -6
20 0 19 15 94 12 91 -4 -2 -6 4 -12 12 -12 18 0 20 -19 3 -21 -35 -4 -93 2
-103 11 -6 5 -21 7 -33 3 -25 -6 -76 23 -66 38 3 5 15 7 27 3 12 -3 27 -7 32
-8z m-2705 -21 c0 -2 -7 -5 -15 -9 -9 -3 -15 0 -15 9 0 9 6 12 15 9 8 -4 15
-7 15 -9z m1460 -30 c19 -14 41 -25 50 -25 19 0 101 -52 149 -95 18 -16 38
-29 43 -27 6 2 8 -4 5 -13 -4 -10 -1 -15 11 -15 15 0 15 -2 2 -10 -10 -6 -11
-10 -3 -10 7 0 12 -3 11 -7 -1 -5 8 -27 20 -50 12 -24 19 -43 15 -43 -5 0 -2
-4 4 -8 10 -6 10 -17 3 -42 -16 -57 -12 -82 29 -160 21 -41 42 -95 46 -120 4
-25 9 -54 12 -65 19 -87 15 -131 -20 -235 -20 -58 -44 -145 -52 -195 -27 -149
-80 -230 -197 -306 -51 -33 -60 -44 -28 -36 20 5 20 5 0 -23 -11 -16 -40 -46
-63 -66 -23 -20 -35 -33 -27 -29 22 13 -53 -69 -149 -162 -58 -56 -89 -79 -96
-73 -7 6 -15 7 -18 3 -4 -3 -7 0 -7 7 0 7 -3 10 -6 7 -9 -9 -42 55 -37 71 3 6
1 12 -5 12 -7 0 -7 10 1 29 8 22 7 39 -5 75 -8 25 -11 46 -7 46 5 0 9 4 9 9 0
5 -19 12 -41 16 -23 4 -58 17 -78 28 -42 25 -113 88 -107 95 3 2 -1 11 -9 19
-8 8 -15 23 -15 34 0 10 -4 19 -9 19 -13 0 -46 85 -60 155 -7 33 -27 96 -43
140 -29 75 -30 86 -25 180 7 125 23 175 60 193 26 13 37 32 18 32 -18 0 5 53
26 61 19 7 22 4 21 -20 -1 -41 9 -51 53 -51 36 0 40 3 46 30 3 17 9 30 12 30
13 0 31 -24 31 -43 0 -10 5 -15 10 -12 16 10 12 22 -17 51 -19 17 -22 25 -10
21 9 -4 17 -4 17 -1 0 11 -25 29 -44 32 -18 3 -19 2 -5 -15 12 -16 12 -17 -2
-6 -9 7 -20 9 -24 5 -5 -4 -4 -1 0 7 6 11 4 13 -8 8 -10 -3 -17 -2 -17 3 0 5
-14 5 -32 -1 -18 -5 -52 -12 -75 -15 l-43 -6 0 35 c0 20 6 37 13 40 8 3 51 1
97 -4 46 -5 85 -7 88 -4 8 8 -67 36 -91 34 -51 -5 -74 1 -75 19 -2 30 31 182
40 182 4 0 8 5 8 11 0 5 -6 7 -12 3 -10 -6 -10 -5 -1 7 6 8 12 17 12 22 0 4
10 29 21 55 36 82 105 138 173 141 15 0 40 7 56 16 16 8 38 12 50 10 11 -2 23
0 26 6 8 11 45 12 45 1 0 -12 157 -5 178 7 9 6 17 11 18 11 0 0 15 -11 34 -25z
m-946 -50 c4 -10 -1 -15 -16 -15 -17 0 -18 2 -8 15 7 8 14 15 15 15 2 0 5 -7
9 -15z m-296 -33 c3 -9 -2 -13 -14 -10 -9 1 -19 9 -22 16 -3 9 2 13 14 10 9
-1 19 -9 22 -16z m-283 -150 c-3 -3 -11 0 -18 7 -9 10 -8 11 6 5 10 -3 15 -9
12 -12z m85 -2 c0 -5 -9 -10 -21 -10 -11 0 -17 5 -14 10 3 6 13 10 21 10 8 0
14 -4 14 -10z m160 -8 c0 -5 -7 -9 -15 -9 -8 0 -15 4 -15 9 0 4 7 8 15 8 8 0
15 -4 15 -8z m-740 -92 c0 -5 -4 -10 -10 -10 -5 0 -10 5 -10 10 0 6 5 10 10
10 6 0 10 -4 10 -10z m130 -6 c0 -2 -17 -4 -37 -3 -33 1 -35 2 -13 8 23 7 50
4 50 -5z m350 -7 l55 -14 0 -52 c0 -49 -13 -68 -26 -39 -4 7 -12 24 -18 38 -7
14 -21 26 -31 27 -11 1 -29 11 -41 22 -16 15 -26 18 -35 10 -8 -7 -14 -7 -19
1 -3 5 -17 10 -30 10 -13 0 -26 4 -29 8 -7 12 113 5 174 -11z m-307 6 c-7 -2
-19 -2 -25 0 -7 3 -2 5 12 5 14 0 19 -2 13 -5z m427 -17 c0 -3 -4 -8 -10 -11
-5 -3 -10 -1 -10 4 0 6 5 11 10 11 6 0 10 -2 10 -4z m75 -18 c1 -2 -2 -18 -7
-35 -7 -28 -13 -33 -38 -33 -17 0 -30 5 -30 10 0 6 11 8 28 4 26 -7 26 -6 11
12 -9 10 -19 29 -21 40 -5 20 -3 21 25 13 16 -4 31 -10 32 -11z m514 -30 c-5
-24 -11 -53 -14 -65 -3 -12 -13 -29 -22 -39 -13 -13 -14 -19 -5 -22 6 -2 12
-10 12 -18 0 -9 -4 -13 -9 -10 -5 3 -12 -15 -16 -40 -9 -65 -13 -72 -43 -78
-55 -12 -276 -15 -289 -4 -7 5 -24 8 -37 4 -15 -4 -28 0 -36 9 -6 7 -18 11
-26 8 -8 -3 -23 2 -33 11 -15 14 -19 33 -20 106 0 51 3 90 9 90 5 0 12 16 16
35 l6 36 102 -2 c170 -2 325 2 354 11 56 17 61 14 51 -32z m-1091 -85 c-5 -25
-28 -28 -28 -4 0 12 6 21 16 21 9 0 14 -7 12 -17z m342 -33 c-6 -11 -15 -20
-20 -20 -6 0 -10 9 -10 20 0 13 7 20 20 20 18 0 19 -3 10 -20z m-220 -45 c6
-8 9 -19 5 -25 -8 -13 -32 -13 -41 2 -5 7 -3 8 6 3 9 -5 10 -2 5 14 -7 24 7
28 25 6z m217 -28 c10 4 14 2 10 -5 -4 -6 -2 -12 5 -15 7 -2 0 -2 -17 1 -37 5
-37 5 -28 28 7 17 8 17 11 2 2 -11 9 -15 19 -11z m-287 -8 c0 -5 -4 -7 -10 -4
-5 3 -10 1 -10 -6 0 -7 -3 -10 -6 -6 -8 7 4 27 17 27 5 0 9 -5 9 -11z m833
-136 c3 -5 -6 -9 -19 -9 -13 -1 -24 2 -24 7 0 11 37 12 43 2z m126 -16 c-9 -7
-19 -21 -21 -32 -3 -14 -6 -11 -9 13 -5 29 -3 32 20 32 23 -1 24 -2 10 -13z
m-585 -114 c5 -16 2 -25 -14 -33 -20 -11 -21 -10 -15 10 5 15 3 20 -3 16 -9
-5 -10 25 -3 64 2 8 28 -35 35 -57z m41 -10 c12 -29 13 -38 3 -44 -17 -11 -28
9 -28 49 0 42 6 41 25 -5z m-55 -65 c0 -6 -6 -5 -15 2 -8 7 -15 14 -15 16 0 2
7 1 15 -2 8 -4 15 -11 15 -16z m-210 -28 c0 -5 -4 -10 -10 -10 -5 0 -10 5 -10
10 0 6 5 10 10 10 6 0 10 -4 10 -10z m160 -10 c0 -5 -4 -10 -10 -10 -5 0 -10
5 -10 10 0 6 5 10 10 10 6 0 10 -4 10 -10z m-65 -20 c-3 -5 -11 -10 -16 -10
-6 0 -7 5 -4 10 3 6 11 10 16 10 6 0 7 -4 4 -10z m-402 -27 c-7 -2 -19 -2 -25
0 -7 3 -2 5 12 5 14 0 19 -2 13 -5z m-54 -98 c3 22 18 35 34 29 22 -8 22 -22
0 -20 -10 0 -17 -5 -15 -11 1 -7 -3 -13 -9 -13 -5 0 -8 -4 -5 -8 3 -5 -1 -9
-9 -9 -18 0 -25 19 -17 49 l6 23 7 -25 c4 -14 8 -20 8 -15z m691 15 c0 -7 -13
-7 -38 -1 -2 1 -1 5 3 11 6 10 35 2 35 -10z m110 5 c13 -15 35 -21 26 -7 -7
12 74 6 86 -6 7 -7 -7 -12 -46 -17 -31 -4 -59 -11 -62 -16 -7 -11 -25 -11 -42
-1 -9 7 -10 15 -3 35 12 31 23 34 41 12z m-60 -45 c0 -11 -4 -20 -10 -20 -5 0
-10 9 -10 20 0 11 5 20 10 20 6 0 10 -9 10 -20z m247 -33 c10 -20 8 -23 -12
-22 -32 0 -40 11 -24 29 19 21 24 20 36 -7z m-728 -8 c-7 -14 -14 -18 -21 -11
-13 13 -2 32 18 32 12 0 13 -4 3 -21z m424 -58 c-5 -3 -14 -17 -21 -31 -11
-25 -11 -25 -5 4 4 20 3 27 -6 22 -6 -4 -11 -3 -11 2 0 5 12 10 26 10 14 0 22
-3 17 -7z m-263 -15 c0 -3 -4 -8 -10 -11 -5 -3 -10 -1 -10 4 0 6 5 11 10 11 6
0 10 -2 10 -4z m414 -13 c3 -8 10 -11 16 -8 6 4 10 -5 10 -19 0 -14 3 -25 8
-25 21 4 21 -3 -2 -27 -21 -24 -28 -26 -61 -18 -40 10 -71 43 -47 51 6 3 12
10 12 16 0 16 28 44 45 44 8 0 17 -7 19 -14z m-198 -2 c-3 -4 -2 -21 3 -38 8
-27 6 -29 -18 -28 -34 0 -39 27 -10 54 24 22 34 27 25 12z m-446 -13 c0 -10 2
-10 9 0 7 11 9 11 14 -2 4 -9 13 -13 21 -10 8 3 17 1 20 -4 3 -6 18 -8 34 -6
15 2 47 5 71 6 l45 3 1 -42 c1 -28 -4 -44 -13 -48 -19 -7 -125 6 -139 17 -7 6
-19 8 -27 5 -7 -3 -19 0 -25 6 -8 8 -11 7 -11 -6 0 -21 -36 -23 -56 -2 -9 8
-21 15 -27 15 -8 0 -7 -3 2 -9 11 -7 9 -11 -9 -21 -15 -8 -20 -8 -16 -1 4 6 1
25 -8 41 -15 32 -5 50 18 31 9 -8 21 -4 46 14 38 28 50 31 50 13z m241 -21
c-10 -9 -11 -8 -5 6 3 10 9 15 12 12 3 -3 0 -11 -7 -18z m294 -16 c3 -5 1 -12
-5 -16 -5 -3 -10 1 -10 9 0 18 6 21 15 7z m-295 -5 c0 -3 -4 -8 -10 -11 -5 -3
-10 -1 -10 4 0 6 5 11 10 11 6 0 10 -2 10 -4z m-530 -36 c0 -16 -4 -30 -8 -30
-5 0 -7 14 -4 30 2 17 6 30 8 30 2 0 4 -13 4 -30z m1097 -22 c-15 -9 -19 -4
-11 16 5 14 9 15 15 5 5 -8 3 -17 -4 -21z m-517 -126 c0 -12 -3 -12 -17 -1
-10 7 -20 14 -22 16 -2 1 6 1 18 0 11 -1 21 -8 21 -15z m521 -9 c-8 -15 -10
-15 -11 -2 0 17 10 32 18 25 2 -3 -1 -13 -7 -23z m89 9 c0 -8 -8 -21 -17 -28
-15 -11 -16 -15 -4 -23 8 -5 12 -20 9 -39 -2 -17 -1 -29 3 -26 4 2 10 0 13 -5
4 -5 2 -12 -3 -16 -5 -3 -8 -14 -6 -24 2 -14 -6 -21 -36 -30 -21 -7 -39 -16
-39 -21 0 -15 -53 -11 -74 5 -11 8 -29 12 -39 9 -25 -8 -14 12 15 27 15 8 19
8 14 0 -5 -7 4 -11 25 -11 26 0 29 3 20 14 -9 11 -6 16 18 24 26 9 29 15 25
39 -3 15 -7 29 -10 32 -2 2 1 10 7 18 8 9 8 13 1 13 -8 0 -8 9 -1 30 9 25 16
29 45 28 23 -1 34 -6 34 -16z m1657 -14 c-3 -7 -5 -2 -5 12 0 14 2 19 5 13 2
-7 2 -19 0 -25z m-2017 -6 c0 -13 3 -12 20 3 18 16 20 16 20 2 0 -19 11 -22
26 -7 7 7 10 4 9 -10 -2 -24 -22 -47 -32 -36 -4 4 -1 11 7 16 11 7 1 10 -32
10 -37 0 -48 -4 -53 -18 -6 -21 -43 -41 -63 -34 -10 3 -10 8 3 22 16 17 15 19
-4 29 -11 6 -27 11 -35 11 -9 0 -16 4 -16 9 0 13 67 19 86 8 12 -7 19 -5 26 6
10 19 38 11 38 -11z m413 13 c-4 -15 -36 -12 -41 3 -3 9 3 13 19 10 13 -1 23
-7 22 -13z m-193 -4 c2 -1 0 -5 -6 -11 -11 -11 -84 -1 -84 12 0 7 30 7 90 -1z
m-88 -28 c-10 -4 -10 -8 -1 -19 7 -9 24 -12 53 -8 47 7 76 -11 76 -48 0 -17
-4 -20 -30 -14 -16 3 -30 2 -30 -3 0 -13 -73 -20 -88 -8 -9 7 -8 13 5 23 10 7
13 14 7 14 -12 0 -25 56 -16 65 3 3 12 5 21 4 11 0 12 -2 3 -6z m-167 -72 c3
-5 1 -12 -5 -16 -5 -3 -10 1 -10 9 0 18 6 21 15 7z m58 -21 c-3 -11 -9 -20
-14 -20 -11 0 -11 3 -3 24 9 23 23 20 17 -4z m-173 -52 c0 -12 4 -17 12 -12 7
5 8 3 3 -5 -9 -15 -17 -7 -34 33 -11 26 -10 28 3 16 9 -7 16 -21 16 -32z m115
23 c3 -5 1 -12 -5 -16 -6 -4 -8 -11 -5 -16 4 -5 1 -9 -4 -9 -6 0 -11 11 -11
25 0 25 14 34 25 16z m117 -63 c-8 -8 -12 -9 -12 -1 0 6 -3 20 -6 30 -7 17 -6
17 12 1 14 -14 15 -20 6 -30z m-712 -89 c0 -5 5 -7 11 -3 6 3 15 1 19 -5 4 -8
17 -10 33 -6 15 4 24 11 21 16 -3 5 2 9 10 9 9 0 16 -5 16 -11 0 -6 7 -8 17
-5 13 5 11 0 -7 -21 -20 -22 -20 -24 -3 -10 26 22 59 19 55 -6 -2 -12 4 -17
20 -17 13 0 33 -3 45 -6 20 -6 20 -7 5 -34 -15 -26 -20 -27 -79 -26 -36 0 -63
-3 -63 -9 0 -5 -5 -3 -10 5 -5 8 -13 15 -17 16 -31 3 -63 18 -63 30 0 8 6 11
15 8 8 -3 23 1 35 9 17 12 18 16 6 26 -10 8 -16 9 -21 1 -3 -5 -11 -10 -16
-10 -6 0 -7 5 -4 10 3 6 -5 10 -19 10 -14 0 -28 -5 -32 -12 -5 -7 -3 -8 6 -3
9 5 11 4 6 -3 -8 -13 -37 -17 -35 -4 1 4 1 15 0 26 -1 17 -2 17 -26 2 -22 -14
-25 -15 -25 -1 0 8 7 15 15 15 8 0 15 5 15 10 0 6 16 10 35 10 19 0 35 -5 35
-11z m80 -273 c-20 -21 -36 -17 -27 6 2 8 14 14 26 14 21 0 21 0 1 -20z m790
10 c0 -9 -7 -12 -20 -9 -11 3 -17 9 -14 14 8 14 34 10 34 -5z m-659 -3 c0 -5
2 -16 4 -26 2 -9 -1 -15 -6 -11 -5 3 -6 11 -3 17 4 7 -4 2 -18 -11 -13 -12
-28 -19 -31 -15 -13 13 -7 42 11 46 28 8 42 7 43 0z m-217 -22 c3 -5 0 -11 -7
-14 -8 -3 -14 1 -14 9 0 16 13 19 21 5z m36 5 c0 -3 -4 -8 -10 -11 -5 -3 -10
-1 -10 4 0 6 5 11 10 11 6 0 10 -2 10 -4z m154 -191 c19 -15 19 -15 -1 -15
-11 0 -26 7 -33 15 -17 20 7 20 34 0z m574 -43 c2 -7 -5 -12 -17 -12 -14 0
-19 5 -14 15 6 17 25 15 31 -3z m-25 -74 c13 -18 17 -32 12 -45 -5 -10 -7 -22
-6 -26 0 -4 -6 -10 -15 -14 -19 -7 -47 24 -37 40 4 6 -3 8 -18 4 l-24 -6 23
19 c19 16 20 20 8 33 -18 17 -13 25 16 23 11 0 30 -13 41 -28z m43 -25 c-11
-11 -17 4 -9 23 7 18 8 18 11 1 2 -10 1 -21 -2 -24z m-620 1 c5 -18 1 -29 -12
-39 -11 -7 -15 -17 -11 -21 4 -5 12 -2 17 5 5 8 15 11 25 7 10 -3 15 -10 11
-14 -4 -4 -10 -6 -12 -4 -2 1 -18 -5 -34 -13 -25 -13 -29 -19 -21 -34 10 -17
5 -18 -64 -20 -72 -2 -104 11 -74 29 9 6 10 12 1 22 -6 8 -7 19 -3 26 9 15 43
5 39 -12 -3 -13 11 -18 35 -10 9 3 17 12 17 21 0 13 -3 13 -15 3 -20 -16 -29
7 -17 40 l9 25 7 -23 c6 -19 11 -20 28 -11 11 6 32 8 46 4 22 -5 25 -4 15 6
-15 15 -17 39 -3 39 5 0 13 -11 16 -26z m-246 -67 c0 -14 -20 -37 -32 -37 -4
0 -8 9 -8 19 0 11 -6 22 -12 24 -10 4 -10 8 1 16 18 11 51 -3 51 -22z m254
-58 c-3 -5 -10 -7 -15 -3 -5 3 -7 10 -3 15 3 5 10 7 15 3 5 -3 7 -10 3 -15z
m86 -3 c0 -3 -4 -8 -10 -11 -5 -3 -10 -1 -10 4 0 6 5 11 10 11 6 0 10 -2 10
-4z m508 -20 c-2 -21 -5 -23 -26 -15 -13 5 -28 7 -33 3 -5 -3 -9 -1 -9 5 0 13
30 30 52 31 13 0 17 -7 16 -24z m-753 -86 c-4 -6 2 -7 17 -1 13 4 61 7 106 7
78 -1 85 -3 97 -26 8 -14 11 -34 9 -46 -6 -23 18 -54 42 -54 8 0 31 7 50 15
44 18 62 10 37 -17 -14 -16 -25 -19 -56 -14 -33 6 -38 4 -35 -11 2 -11 12 -18
26 -17 16 0 24 -8 32 -32 6 -17 20 -40 30 -49 24 -22 26 -35 5 -35 -8 0 -15
-7 -15 -15 0 -16 -1 -16 -158 -19 -78 -1 -91 1 -87 14 3 9 -1 8 -9 -4 -12 -14
-22 -17 -43 -11 -15 4 -22 10 -15 12 6 3 12 9 12 15 0 6 -7 7 -16 4 -14 -5
-15 -4 -4 9 7 8 17 12 23 8 6 -3 7 -1 3 6 -4 6 -2 19 5 27 8 10 9 18 2 25 -8
8 -13 2 -18 -21 -6 -28 -10 -31 -38 -28 -31 3 -31 3 -32 63 -1 33 2 67 6 75 4
9 10 35 14 58 6 40 5 42 -19 42 -35 0 -42 18 -9 23 16 2 32 5 36 6 5 0 5 -3 2
-9z m-43 -58 c3 -11 0 -29 -6 -41 -12 -21 -13 -21 -28 -4 -11 13 -13 25 -7 41
10 27 35 29 41 4z m-2 -92 c0 -5 -4 -10 -10 -10 -5 0 -10 5 -10 10 0 6 5 10
10 10 6 0 10 -4 10 -10z m1101 -57 c-44 -60 -97 -112 -108 -105 -31 19 6 92
46 92 9 0 30 9 46 20 39 26 40 25 16 -7z m-1235 -13 c0 -12 -4 -16 -9 -11 -5
5 -6 14 -3 20 10 15 12 14 12 -9z m-20 -297 c-10 -10 -19 5 -10 18 6 11 8 11
12 0 2 -7 1 -15 -2 -18z m238 -34 c4 7 15 11 24 9 10 -1 23 1 30 5 7 5 12 3
12 -7 0 -8 -8 -17 -17 -19 -12 -3 -8 -5 9 -6 20 -1 27 -7 30 -23 2 -17 11 -24
31 -26 19 -2 27 -9 27 -23 0 -18 -4 -20 -31 -14 -18 4 -41 17 -53 29 -12 12
-15 15 -8 6 16 -22 15 -35 -3 -50 -12 -10 -19 -10 -27 -2 -7 7 -22 12 -34 12
-12 0 -24 7 -28 15 -3 8 -11 12 -19 9 -8 -3 -19 1 -26 9 -9 12 -7 16 9 20 11
3 20 0 20 -6 0 -6 3 -8 6 -5 3 4 19 2 35 -2 22 -7 29 -6 26 3 -2 7 -14 11 -26
10 -23 -3 -29 12 -8 20 6 3 2 6 -10 6 -26 1 -38 17 -22 27 8 4 9 3 5 -4 -4 -7
-2 -12 3 -12 6 0 11 15 12 33 l1 32 12 -29 c9 -19 16 -25 20 -17z m-240 -14
c3 -8 3 -22 0 -30 -4 -8 -1 -22 6 -30 14 -17 15 -16 -27 -20 -29 -2 -30 -1
-17 13 13 12 13 16 2 23 -10 7 -10 9 0 9 6 0 12 11 12 25 0 27 15 34 24 10z
m85 -22 c-1 -17 -3 -21 -6 -10 -2 9 -9 17 -14 17 -5 0 -9 5 -9 10 0 6 7 10 15
10 10 0 15 -9 14 -27z m18 -35 c-3 -8 -6 -5 -6 6 -1 11 2 17 5 13 3 -3 4 -12
1 -19z m423 -155 c0 -9 -3 -13 -7 -10 -3 4 -12 2 -20 -4 -8 -7 -13 -8 -13 -1
0 20 -28 20 -50 0 -15 -14 -25 -17 -32 -10 -23 23 -1 37 61 40 51 2 61 0 61
-15z"/>
<path d="M1425 3660 c3 -5 10 -10 16 -10 5 0 9 5 9 10 0 6 -7 10 -16 10 -8 0
-12 -4 -9 -10z"/>
<path d="M1245 3650 c-3 -5 -1 -10 4 -10 6 0 11 5 11 10 0 6 -2 10 -4 10 -3 0
-8 -4 -11 -10z"/>
<path d="M1182 3638 c5 -15 28 -23 28 -10 0 5 -7 13 -16 16 -10 4 -14 1 -12
-6z"/>
<path d="M2184 3075 c-4 -8 -11 -12 -17 -8 -6 3 -7 1 -3 -6 6 -8 12 -9 20 -2
17 14 27 3 17 -18 -4 -9 -6 -22 -5 -28 1 -7 2 -17 3 -22 2 -18 55 -20 68 -3
10 14 12 15 13 2 0 -13 2 -13 9 0 6 8 8 17 5 21 -11 18 17 18 35 0 18 -18 21
-18 32 -4 11 13 10 18 -6 29 -11 8 -25 12 -32 10 -7 -3 -12 0 -10 6 1 6 -11
15 -27 20 -21 8 -30 7 -37 -3 -8 -12 -12 -11 -23 4 -16 21 -35 22 -42 2z m46
-65 c0 -5 -5 -10 -11 -10 -5 0 -7 5 -4 10 3 6 8 10 11 10 2 0 4 -4 4 -10z"/>
<path d="M1842 3030 c0 -14 2 -19 5 -12 2 6 2 18 0 25 -3 6 -5 1 -5 -13z"/>
<path d="M2135 3040 c-3 -6 1 -7 9 -4 18 7 21 14 7 14 -6 0 -13 -4 -16 -10z"/>
<path d="M1916 2692 c-2 -4 13 -6 35 -4 21 2 39 6 39 8 0 7 -69 4 -74 -4z"/>
<path d="M1714 2528 c-6 -10 7 -40 33 -74 13 -17 23 -36 23 -42 0 -20 42 -26
52 -8 5 10 19 21 31 25 19 7 18 9 -16 20 -20 7 -37 16 -37 21 0 4 -7 7 -16 6
-9 0 -19 5 -21 11 -6 16 37 33 88 35 21 1 36 4 33 7 -8 8 -165 8 -170 -1z
m106 -108 c0 -5 -5 -10 -11 -10 -5 0 -7 5 -4 10 3 6 8 10 11 10 2 0 4 -4 4
-10z"/>
<path d="M2124 2490 c0 -22 16 -26 34 -8 18 18 14 28 -11 28 -16 0 -23 -6 -23
-20z"/>
<path d="M2095 2470 c-3 -5 -1 -10 4 -10 6 0 11 5 11 10 0 6 -2 10 -4 10 -3 0
-8 -4 -11 -10z"/>
<path d="M2010 2460 l-35 -7 43 -2 c23 0 42 4 42 9 0 6 -3 9 -7 9 -5 -1 -24
-5 -43 -9z"/>
<path d="M1946 2083 c-6 -14 -5 -15 5 -6 7 7 10 15 7 18 -3 3 -9 -2 -12 -12z"/>
<path d="M1208 1953 c7 -3 16 -2 19 1 4 3 -2 6 -13 5 -11 0 -14 -3 -6 -6z"/>
<path d="M1155 1940 c3 -5 8 -10 11 -10 2 0 4 5 4 10 0 6 -5 10 -11 10 -5 0
-7 -4 -4 -10z"/>
<path d="M407 832 c-9 -2 -15 -8 -12 -13 8 -12 42 -12 49 0 7 11 -13 19 -37
13z"/>
<path d="M1590 4385 c0 -6 8 -11 18 -11 10 0 19 6 19 12 0 7 -9 12 -19 11 -10
-1 -18 -6 -18 -12z"/>
<path d="M2693 4393 c30 -5 33 -12 15 -32 -10 -11 -8 -10 12 0 14 8 27 17 30
20 3 3 12 9 20 12 8 3 -12 5 -45 5 -33 -1 -48 -3 -32 -5z"/>
<path d="M2990 4384 c0 -10 7 -13 23 -9 15 4 31 -1 46 -15 21 -18 23 -23 12
-46 -14 -31 -8 -44 19 -37 11 3 20 1 20 -5 0 -6 16 -9 38 -7 20 1 31 1 25 -2
-7 -3 -13 -12 -13 -20 0 -11 -4 -13 -12 -6 -22 15 -72 14 -93 -3 -14 -11 -16
-18 -7 -21 6 -3 12 -21 12 -43 0 -37 18 -57 45 -51 6 2 28 5 50 7 22 3 56 9
75 14 19 5 50 8 68 6 19 -1 31 2 29 8 -2 6 -12 10 -21 10 -9 -1 -16 2 -16 7 0
5 -10 9 -22 9 -17 0 -19 -3 -10 -9 10 -6 6 -10 -14 -14 -15 -3 -34 -3 -41 0
-16 6 -17 39 -1 49 7 4 8 3 4 -4 -4 -7 -2 -12 3 -12 6 0 11 8 12 18 0 10 3 12
6 5 8 -22 23 -14 23 13 0 17 6 28 20 31 11 3 18 9 15 13 -3 5 5 6 17 2 21 -5
22 -4 9 11 -7 10 -21 16 -29 15 -10 -2 -18 5 -20 17 -2 12 0 16 5 9 11 -15 56
-12 76 5 22 18 21 34 -2 55 -16 14 -42 16 -185 16 -137 -1 -166 -4 -166 -16z
m235 -134 c3 -5 -1 -10 -10 -10 -9 0 -14 -4 -11 -9 4 -5 -2 -8 -11 -7 -24 4
-28 23 -6 29 29 8 32 7 38 -3z"/>
<path d="M1611 4339 c12 -23 15 -23 22 -5 3 8 -2 16 -14 19 -16 4 -17 2 -8
-14z"/>
<path d="M3630 4346 c0 -9 5 -16 10 -16 6 0 10 4 10 9 0 6 -4 13 -10 16 -5 3
-10 -1 -10 -9z"/>
<path d="M3626 4300 c-4 -9 0 -33 7 -55 11 -30 15 -35 19 -19 7 26 -17 95 -26
74z"/>
<path d="M1609 4278 c-9 -32 -7 -47 6 -42 17 7 21 44 5 44 -5 0 -10 -1 -11 -2z"/>
<path d="M1570 4255 c0 -20 17 -28 23 -11 3 8 -1 17 -9 20 -8 3 -14 -1 -14 -9z"/>
<path d="M3860 4260 c0 -6 7 -10 15 -10 8 0 15 2 15 4 0 2 -7 6 -15 10 -8 3
-15 1 -15 -4z"/>
<path d="M4330 4188 c-42 -12 -42 -11 -35 -31 4 -8 14 -14 23 -12 9 2 32 4 50
4 26 1 32 5 32 24 0 26 -17 29 -70 15z"/>
<path d="M4018 4174 c-4 -3 -48 -7 -100 -8 -161 -5 -157 -4 -151 -24 8 -31
153 -28 153 3 0 19 16 19 24 0 4 -11 16 -14 48 -10 24 3 51 8 61 11 18 6 24
24 8 24 -5 0 -16 2 -23 5 -8 3 -17 3 -20 -1z"/>
<path d="M4190 4164 c0 -20 32 -15 37 6 4 13 3 13 -6 0 -7 -10 -11 -11 -11 -2
0 6 -4 12 -10 12 -5 0 -10 -7 -10 -16z"/>
<path d="M4087 4158 c6 -11 53 -10 53 0 0 4 -13 8 -29 7 -16 0 -27 -3 -24 -7z"/>
<path d="M4155 4160 c-3 -6 1 -7 9 -4 18 7 21 14 7 14 -6 0 -13 -4 -16 -10z"/>
<path d="M3403 4153 c-15 -5 -18 -33 -4 -33 8 0 25 30 19 35 -2 1 -9 0 -15 -2z"/>
<path d="M3710 4145 c0 -17 2 -18 24 -9 23 9 20 24 -4 24 -11 0 -20 -7 -20
-15z"/>
<path d="M2654 4089 c-3 -5 1 -16 9 -23 11 -11 17 -12 26 -3 8 8 11 7 11 -6 0
-9 5 -17 10 -17 6 0 10 6 10 14 0 18 -57 48 -66 35z"/>
<path d="M960 4065 c-24 -14 -53 -22 -62 -19 -11 3 -18 0 -18 -8 0 -9 13 -14
35 -15 19 -1 35 3 35 7 0 5 9 8 20 7 11 -1 20 -5 20 -9 0 -4 5 -8 10 -8 6 0
10 7 10 15 0 8 9 15 19 15 11 0 22 4 26 10 3 5 13 6 23 3 11 -4 14 -3 7 4 -23
24 -79 23 -125 -2z"/>
<path d="M1106 4065 c4 -8 10 -15 15 -15 5 0 9 -7 9 -15 0 -8 5 -15 10 -15 6
0 9 14 8 30 -2 24 -7 30 -25 30 -16 0 -21 -4 -17 -15z"/>
<path d="M1910 4070 c0 -5 11 -10 24 -10 14 0 28 5 31 10 4 6 -7 10 -24 10
-17 0 -31 -4 -31 -10z"/>
<path d="M3089 4053 c-13 -16 -12 -17 4 -4 16 13 21 21 13 21 -2 0 -10 -8 -17
-17z"/>
<path d="M855 4050 c3 -5 8 -10 11 -10 2 0 4 5 4 10 0 6 -5 10 -11 10 -5 0 -7
-4 -4 -10z"/>
<path d="M2595 4050 c3 -5 11 -10 16 -10 6 0 7 5 4 10 -3 6 -11 10 -16 10 -6
0 -7 -4 -4 -10z"/>
<path d="M3748 4053 c7 -3 16 -2 19 1 4 3 -2 6 -13 5 -11 0 -14 -3 -6 -6z"/>
<path d="M3677 4020 c-4 -17 -2 -18 14 -9 22 11 25 29 5 29 -7 0 -16 -9 -19
-20z"/>
<path d="M1574 4005 c22 -17 36 -19 36 -6 0 10 -24 21 -43 21 -7 0 -3 -7 7
-15z"/>
<path d="M2305 4000 c-3 -5 -1 -10 4 -10 6 0 11 5 11 10 0 6 -2 10 -4 10 -3 0
-8 -4 -11 -10z"/>
<path d="M110 3990 c0 -5 5 -10 10 -10 6 0 10 5 10 10 0 6 -4 10 -10 10 -5 0
-10 -4 -10 -10z"/>
<path d="M1300 3960 c0 -6 7 -10 15 -10 8 0 15 2 15 4 0 2 -7 6 -15 10 -8 3
-15 1 -15 -4z"/>
<path d="M3660 3960 c0 -5 5 -10 10 -10 6 0 10 5 10 10 0 6 -4 10 -10 10 -5 0
-10 -4 -10 -10z"/>
<path d="M1510 3938 c0 -9 -5 -18 -11 -20 -12 -4 -1 -38 13 -38 6 0 8 9 5 20
-3 10 -1 20 4 22 4 2 4 10 -1 18 -8 13 -10 13 -10 -2z"/>
<path d="M555 3920 c3 -5 8 -10 11 -10 2 0 4 5 4 10 0 6 -5 10 -11 10 -5 0 -7
-4 -4 -10z"/>
<path d="M2585 3920 c3 -5 8 -10 11 -10 2 0 4 5 4 10 0 6 -5 10 -11 10 -5 0
-7 -4 -4 -10z"/>
<path d="M3665 3898 c3 -18 7 -42 8 -54 0 -11 7 -21 14 -21 16 0 18 60 3 88
-17 31 -32 23 -25 -13z"/>
<path d="M956 3885 c-3 -8 -1 -15 4 -15 6 0 10 7 10 15 0 8 -2 15 -4 15 -2 0
-6 -7 -10 -15z"/>
<path d="M1486 3853 c-6 -14 -5 -15 5 -6 7 7 10 15 7 18 -3 3 -9 -2 -12 -12z"/>
<path d="M1190 3830 c-13 -8 -12 -10 3 -10 9 0 17 5 17 10 0 12 -1 12 -20 0z"/>
<path d="M3763 3770 c3 -10 2 -19 -2 -18 -18 2 -33 -3 -27 -9 4 -5 11 -8 14
-9 16 -2 48 -18 54 -28 5 -7 8 -4 8 7 0 19 17 22 53 8 29 -11 79 -1 85 18 3 9
-14 12 -69 10 -63 -2 -74 1 -90 19 -22 27 -33 28 -26 2z"/>
<path d="M2840 3693 c0 -12 3 -14 8 -6 5 8 13 9 22 3 19 -12 60 -13 60 -1 0 8
-47 21 -76 21 -8 0 -14 -8 -14 -17z"/>
<path d="M100 3650 c0 -5 5 -10 11 -10 5 0 7 5 4 10 -3 6 -8 10 -11 10 -2 0
-4 -4 -4 -10z"/>
<path d="M3284 3652 c-11 -7 -12 -57 -1 -68 3 -3 9 10 13 30 7 40 4 49 -12 38z"/>
<path d="M60 3600 c-8 -5 -11 -12 -8 -16 4 -3 14 1 23 10 18 17 9 21 -15 6z"/>
<path d="M3940 3591 c0 -5 9 -7 20 -4 11 3 20 7 20 9 0 2 -9 4 -20 4 -11 0
-20 -4 -20 -9z"/>
<path d="M15 3581 c-3 -6 -1 -11 6 -11 8 0 9 -3 0 -13 -12 -15 -5 -27 16 -27
10 0 13 9 11 27 -3 28 -22 41 -33 24z"/>
<path d="M100 3573 c0 -7 -7 -10 -15 -7 -26 10 -17 -33 12 -61 20 -18 39 -25
68 -25 23 0 46 -5 53 -12 17 -17 40 6 37 37 -4 35 -13 45 -41 45 -14 0 -35 5
-46 11 -14 8 -23 8 -31 0 -7 -7 -14 -5 -23 7 -8 10 -13 12 -14 5z"/>
<path d="M3897 3478 c-7 -52 -3 -58 34 -58 24 0 29 4 29 25 0 14 5 25 10 25
20 0 9 28 -12 33 -13 2 -30 7 -39 11 -13 6 -17 -1 -22 -36z"/>
<path d="M550 3470 c0 -5 -6 -10 -14 -10 -8 0 -18 -5 -22 -12 -5 -8 0 -9 14
-6 12 4 25 2 28 -4 3 -5 14 -2 25 8 10 9 16 21 13 25 -7 12 -44 11 -44 -1z"/>
<path d="M4120 3470 c0 -5 7 -7 15 -4 8 4 15 8 15 10 0 2 -7 4 -15 4 -8 0 -15
-4 -15 -10z"/>
<path d="M4167 3450 c3 -11 0 -20 -6 -20 -13 0 -15 -29 -3 -47 13 -20 34 3 35
38 1 19 6 37 12 41 5 4 -2 8 -17 8 -21 0 -25 -4 -21 -20z"/>
<path d="M625 3440 c3 -5 8 -10 11 -10 2 0 4 5 4 10 0 6 -5 10 -11 10 -5 0 -7
-4 -4 -10z"/>
<path d="M3914 3388 c-13 -30 -7 -58 14 -59 36 -2 67 3 73 13 5 8 20 8 50 0
28 -7 47 -8 53 -2 7 7 -3 10 -26 10 -23 0 -38 6 -42 15 -3 9 -18 15 -40 15
-21 0 -36 6 -40 15 -8 22 -31 18 -42 -7z"/>
<path d="M4350 3360 c0 -5 5 -10 10 -10 6 0 10 5 10 10 0 6 -4 10 -10 10 -5 0
-10 -4 -10 -10z"/>
<path d="M196 3174 c-19 -18 -21 -54 -3 -54 7 0 8 -3 2 -8 -5 -4 -10 -20 -10
-36 0 -56 20 -36 22 21 1 32 7 59 13 61 12 4 14 32 1 32 -5 0 -17 -7 -25 -16z"/>
<path d="M3810 3050 c0 -5 5 -10 10 -10 6 0 10 5 10 10 0 6 -4 10 -10 10 -5 0
-10 -4 -10 -10z"/>
<path d="M3120 3039 c0 -5 5 -7 10 -4 6 3 10 1 10 -4 0 -6 7 -11 15 -11 8 0
15 5 15 11 0 5 -4 7 -10 4 -5 -3 -10 -1 -10 4 0 6 -7 11 -15 11 -8 0 -15 -5
-15 -11z"/>
<path d="M2957 2961 c-3 -11 1 -25 8 -31 19 -15 30 20 12 38 -12 12 -15 11
-20 -7z"/>
<path d="M3245 2970 c3 -5 8 -10 11 -10 2 0 4 5 4 10 0 6 -5 10 -11 10 -5 0
-7 -4 -4 -10z"/>
<path d="M3292 2962 c4 -18 42 -21 87 -7 14 5 22 4 18 -1 -3 -5 16 -9 44 -9
27 0 49 -3 49 -7 0 -4 14 -2 31 4 54 18 16 28 -129 34 -94 3 -103 2 -100 -14z"/>
<path d="M2931 2954 c0 -11 3 -14 6 -6 3 7 2 16 -1 19 -3 4 -6 -2 -5 -13z"/>
<path d="M3240 2881 c-9 -19 -8 -21 13 -21 15 0 28 -9 35 -22 10 -21 11 -19 9
17 -2 33 -6 41 -24 43 -14 2 -26 -4 -33 -17z"/>
<path d="M300 2871 c0 -6 4 -13 10 -16 6 -3 7 1 4 9 -7 18 -14 21 -14 7z"/>
<path d="M3040 2871 c0 -6 5 -13 10 -16 6 -3 10 1 10 9 0 9 -4 16 -10 16 -5 0
-10 -4 -10 -9z"/>
<path d="M652 2840 c0 -14 2 -19 5 -12 2 6 2 18 0 25 -3 6 -5 1 -5 -13z"/>
<path d="M860 2829 c0 -5 5 -7 10 -4 6 3 10 8 10 11 0 2 -4 4 -10 4 -5 0 -10
-5 -10 -11z"/>
<path d="M175 2820 c4 -6 11 -8 16 -5 14 9 11 15 -7 15 -8 0 -12 -5 -9 -10z"/>
<path d="M3275 2767 c-7 -47 6 -97 26 -97 9 0 2 91 -10 123 -7 19 -10 14 -16
-26z"/>
<path d="M200 2765 c0 -14 5 -24 12 -22 7 1 13 -12 15 -32 2 -19 8 -40 14 -47
6 -7 8 -18 4 -24 -3 -5 -2 -10 3 -10 14 0 33 83 22 94 -6 6 -11 24 -11 41 -1
16 -3 22 -6 13 -4 -17 -13 -21 -30 -15 -5 1 -7 8 -5 15 2 6 -2 12 -8 12 -5 0
-10 -11 -10 -25z"/>
<path d="M271 2764 c0 -11 3 -14 6 -6 3 7 2 16 -1 19 -3 4 -6 -2 -5 -13z"/>
<path d="M80 2756 c0 -8 5 -18 10 -21 6 -3 10 1 10 9 0 8 -4 18 -10 21 -5 3
-10 -1 -10 -9z"/>
<path d="M340 2686 c0 -9 5 -16 10 -16 6 0 10 4 10 9 0 6 -4 13 -10 16 -5 3
-10 -1 -10 -9z"/>
<path d="M0 2680 c0 -5 5 -10 10 -10 6 0 10 5 10 10 0 6 -4 10 -10 10 -5 0
-10 -4 -10 -10z"/>
<path d="M3300 2660 c-1 -3 -4 -18 -5 -35 -2 -16 -6 -43 -9 -60 -3 -16 -3 -22
0 -12 5 16 8 16 35 -4 22 -16 29 -17 29 -6 0 8 -10 17 -21 20 -13 4 -20 11
-16 20 5 12 -8 89 -13 77z"/>
<path d="M3340 2590 c-11 -7 -6 -10 20 -10 26 0 31 3 20 10 -8 5 -17 10 -20
10 -3 0 -12 -5 -20 -10z"/>
<path d="M3090 2559 c0 -6 -6 -9 -14 -6 -9 4 -13 -3 -12 -24 1 -16 4 -29 9
-29 4 0 7 4 7 9 0 12 45 27 90 31 18 1 -46 30 -66 30 -8 0 -14 -5 -14 -11z"/>
<path d="M3200 2556 c0 -9 7 -16 16 -16 9 0 14 5 12 12 -6 18 -28 21 -28 4z"/>
<path d="M3261 2554 c0 -11 3 -14 6 -6 3 7 2 16 -1 19 -3 4 -6 -2 -5 -13z"/>
<path d="M3403 2543 c9 -2 23 -2 30 0 6 3 -1 5 -18 5 -16 0 -22 -2 -12 -5z"/>
<path d="M190 2350 c0 -5 5 -10 10 -10 6 0 10 5 10 10 0 6 -4 10 -10 10 -5 0
-10 -4 -10 -10z"/>
<path d="M3080 2319 c0 -5 5 -7 10 -4 6 3 10 8 10 11 0 2 -4 4 -10 4 -5 0 -10
-5 -10 -11z"/>
<path d="M2926 2243 c-6 -14 -5 -15 5 -6 7 7 10 15 7 18 -3 3 -9 -2 -12 -12z"/>
<path d="M3730 2179 c0 -5 9 -9 20 -9 11 0 20 2 20 4 0 2 -9 6 -20 9 -11 3
-20 1 -20 -4z"/>
<path d="M3010 2163 c0 -5 4 -13 8 -20 6 -9 11 -7 20 7 11 17 10 20 -8 20 -11
0 -20 -3 -20 -7z"/>
<path d="M3438 2163 c6 -2 18 -2 25 0 6 3 1 5 -13 5 -14 0 -19 -2 -12 -5z"/>
<path d="M255 1960 c-3 -5 -1 -10 4 -10 6 0 11 5 11 10 0 6 -2 10 -4 10 -3 0
-8 -4 -11 -10z"/>
<path d="M303 1915 c-9 -10 -9 -16 -2 -20 14 -9 22 0 17 18 -2 13 -5 13 -15 2z"/>
<path d="M3380 1790 c0 -5 5 -10 11 -10 5 0 7 5 4 10 -3 6 -8 10 -11 10 -2 0
-4 -4 -4 -10z"/>
<path d="M3255 1780 c3 -5 12 -10 20 -10 8 0 17 5 20 10 4 6 -5 10 -20 10 -15
0 -24 -4 -20 -10z"/>
<path d="M3500 1780 c0 -5 5 -10 11 -10 5 0 7 5 4 10 -3 6 -8 10 -11 10 -2 0
-4 -4 -4 -10z"/>
<path d="M3383 1635 c-7 -11 -8 -28 -3 -40 5 -12 8 -63 7 -114 -2 -79 0 -91
15 -91 9 0 20 -4 23 -10 8 -12 45 -13 45 -1 0 4 -15 12 -32 17 l-33 10 2 102
c1 56 -1 112 -6 124 -8 21 -8 21 -18 3z"/>
<path d="M6 1581 c-5 -8 -2 -20 8 -29 17 -17 19 -9 7 22 -6 15 -10 16 -15 7z"/>
<path d="M50 1555 c0 -8 7 -15 15 -15 9 0 12 6 9 15 -4 8 -10 15 -15 15 -5 0
-9 -7 -9 -15z"/>
<path d="M3226 1407 c8 -23 46 -32 81 -19 26 10 25 10 -17 11 -26 1 -52 7 -59
14 -10 10 -11 9 -5 -6z"/>
<path d="M3688 1393 c7 -3 16 -2 19 1 4 3 -2 6 -13 5 -11 0 -14 -3 -6 -6z"/>
<path d="M0 1230 c0 -5 5 -10 10 -10 6 0 10 5 10 10 0 6 -4 10 -10 10 -5 0
-10 -4 -10 -10z"/>
<path d="M4061 1113 c-1 -13 -7 -23 -16 -23 -21 0 -19 -12 11 -55 14 -21 28
-54 31 -72 7 -41 23 -44 23 -4 0 52 8 61 43 49 30 -9 92 -35 109 -45 4 -2 5 3
2 11 -4 12 0 16 17 17 l24 0 -25 11 c-14 6 -38 17 -54 25 -22 10 -31 10 -37 2
-18 -30 -103 24 -118 74 -7 25 -9 27 -10 10z"/>
<path d="M3997 1046 c-3 -8 2 -16 14 -19 14 -4 19 0 19 14 0 22 -25 26 -33 5z"/>
<path d="M3425 970 c-4 -6 3 -10 14 -10 25 0 27 6 6 13 -8 4 -17 2 -20 -3z"/>
<path d="M3488 963 c7 -3 16 -2 19 1 4 3 -2 6 -13 5 -11 0 -14 -3 -6 -6z"/>
<path d="M325 190 c3 -5 16 -10 28 -9 21 0 21 1 2 9 -28 12 -37 12 -30 0z"/>
<path d="M40 83 c0 -10 5 -25 10 -33 7 -11 10 -7 10 18 0 17 -4 32 -10 32 -5
0 -10 -8 -10 -17z"/>
</g>
</svg>
