<?xml version="1.0" standalone="no"?>
<!DOCTYPE svg PUBLIC "-//W3C//DTD SVG 20010904//EN"
 "http://www.w3.org/TR/2001/REC-SVG-20010904/DTD/svg10.dtd">
<svg version="1.0" xmlns="http://www.w3.org/2000/svg"
 width="1038.000000pt" height="1038.000000pt" viewBox="0 0 1038.000000 1038.000000"
 preserveAspectRatio="xMidYMid meet">
<metadata>
Created by potrace 1.14, written by Peter Selinger 2001-2017
</metadata>
<g transform="translate(0.000000,1038.000000) scale(0.100000,-0.100000)"
fill="#000000" stroke="none">
<path d="M0 6725 c0 -2010 3 -3655 6 -3655 3 0 19 8 35 17 24 14 31 15 38 5 5
-9 48 -18 115 -25 101 -10 109 -10 164 13 31 12 67 32 79 42 14 13 28 18 42
13 27 -8 39 18 33 78 -5 58 -29 65 -35 9 -3 -24 -3 -20 -2 11 1 26 4 50 7 53
10 10 78 -31 78 -47 0 -13 20 -17 118 -24 64 -4 177 -7 250 -7 120 2 135 4
162 24 17 12 30 29 30 38 0 15 17 18 117 23 73 4 119 3 121 -3 2 -6 16 -3 32
5 16 8 40 15 54 15 14 0 37 11 52 25 24 22 36 25 105 25 46 0 79 -4 79 -10 0
-17 67 -11 102 10 18 10 42 19 53 19 11 1 48 4 83 7 65 7 116 -6 126 -32 3 -8
12 -14 20 -14 8 0 16 -4 18 -10 2 -6 19 -7 43 -3 l40 8 -40 5 -40 5 33 29 c29
26 39 29 87 27 35 -2 55 2 55 9 0 6 10 15 23 19 22 9 22 9 -6 20 -16 6 -33 9
-37 6 -5 -3 -24 1 -43 9 -19 7 -53 17 -76 21 -22 4 -41 11 -41 16 0 5 -9 9
-19 9 -11 0 -23 4 -26 10 -9 15 -35 12 -35 -5 0 -8 6 -12 13 -9 7 2 24 1 36
-4 l23 -8 -26 -29 c-14 -15 -26 -32 -26 -36 0 -5 -4 -9 -10 -9 -5 0 -10 7 -10
15 0 9 -9 15 -24 15 -13 0 -31 3 -40 6 -18 7 -22 44 -5 44 21 0 -16 26 -51 36
-30 8 -35 14 -38 43 -2 18 1 31 5 28 5 -3 23 2 39 12 25 15 33 15 54 4 14 -7
32 -13 41 -13 21 0 48 -30 28 -31 -8 0 4 -7 26 -16 22 -8 55 -22 73 -30 18 -8
44 -17 58 -19 19 -4 24 0 24 18 0 20 1 21 13 4 7 -9 17 -17 22 -16 6 2 17 2
25 1 13 -1 13 -2 0 -11 -28 -18 4 -29 100 -35 74 -5 91 -4 77 5 -11 7 -29 10
-42 8 -20 -4 -24 0 -29 31 -7 46 0 51 28 18 15 -17 29 -25 39 -21 9 3 22 2 28
-2 9 -5 7 -10 -7 -15 -16 -6 -15 -8 9 -8 15 -1 27 4 27 9 0 6 5 10 11 10 5 0
7 -4 4 -10 -3 -5 -1 -19 6 -31 12 -24 23 -140 11 -124 -4 6 -20 16 -36 23 -24
11 -27 15 -15 23 9 6 10 9 2 9 -25 0 -28 -2 -25 -16 2 -8 -2 -14 -8 -14 -6 0
-8 -5 -4 -11 3 -6 16 -8 27 -5 13 3 27 -2 38 -15 20 -23 39 -18 39 11 0 14 5
18 16 13 21 -8 10 -53 -19 -75 -18 -14 -20 -19 -9 -29 6 -7 12 -24 12 -37 0
-13 4 -20 10 -17 5 3 10 15 10 26 0 11 9 29 20 41 26 28 33 9 21 -52 -5 -25
-9 -37 -10 -27 -1 9 -5 17 -11 17 -5 0 -10 -25 -10 -55 0 -30 -4 -55 -10 -55
-5 0 -10 -16 -10 -36 0 -19 -6 -42 -14 -49 -18 -19 -31 -88 -17 -93 25 -8 14
-27 -72 -122 -8 -8 -17 -23 -20 -33 -4 -9 -14 -20 -23 -24 -25 -10 -61 -46
-67 -68 -4 -18 -5 -18 -6 3 -1 28 -31 30 -49 2 -7 -11 -20 -20 -30 -20 -13 0
-14 2 -4 9 9 5 -2 13 -35 24 l-48 16 53 0 c45 1 51 3 40 15 -7 8 -17 12 -21 9
-16 -9 -57 8 -57 23 0 14 -9 16 -55 12 -31 -3 -58 -1 -61 4 -9 13 -24 9 -24
-7 0 -13 26 -21 53 -16 5 1 6 -3 2 -9 -14 -23 -95 -6 -95 20 0 10 -6 20 -12
23 -7 2 4 8 25 12 44 9 59 25 23 25 -19 0 -26 5 -26 18 0 17 -7 19 -77 14 -43
-3 -80 -8 -83 -12 -5 -7 -79 -18 -181 -26 -26 -2 -51 -4 -55 -6 -5 -1 -31 3
-59 10 -27 7 -150 16 -272 21 -182 8 -232 7 -275 -4 -179 -48 -399 -70 -426
-43 -9 9 -12 9 -12 0 0 -7 -16 -12 -40 -12 -22 0 -40 5 -40 10 0 6 -18 10 -40
10 -22 0 -40 -4 -40 -10 0 -5 -18 -10 -40 -10 -22 0 -40 5 -40 10 0 6 -18 10
-40 10 -22 0 -40 -4 -40 -10 0 -5 -25 -10 -55 -10 -30 0 -55 3 -55 8 0 14 -62
42 -96 42 l-34 0 0 -1415 0 -1415 905 0 905 0 0 70 c0 56 -3 70 -15 70 -11 0
-15 11 -15 40 0 22 -4 40 -10 40 -5 0 -10 9 -10 20 0 13 -14 25 -42 39 l-43
19 63 1 62 1 0 40 c0 42 -3 44 -62 40 -16 -1 -28 3 -28 9 0 5 -10 13 -22 17
-13 3 -36 16 -51 27 -22 15 -26 22 -16 28 11 6 10 9 -4 15 -11 4 -17 17 -17
35 0 26 -4 29 -30 29 -28 0 -30 -2 -30 -40 0 -22 -4 -40 -10 -40 -5 0 -10 -8
-10 -17 0 -14 -2 -15 -12 -4 -10 11 -10 14 -1 18 16 6 17 33 3 33 -6 0 -13 -7
-16 -15 -4 -8 -17 -15 -30 -15 -19 0 -24 5 -24 25 0 14 -5 25 -11 25 -5 0 -8
-4 -4 -9 3 -6 -10 -13 -30 -17 -19 -3 -35 -10 -35 -15 0 -5 -17 -9 -37 -9 -31
0 -42 6 -58 30 -13 19 -23 26 -29 20 -16 -16 -36 -11 -36 8 0 11 -9 27 -19 36
-11 10 -22 28 -25 42 -4 13 -12 24 -19 24 -15 0 -62 68 -53 77 11 11 -26 43
-50 43 -12 0 -34 -4 -48 -10 -21 -7 -26 -6 -26 5 0 20 -28 8 -35 -16 -4 -10
-15 -19 -26 -19 -10 0 -19 -6 -20 -12 0 -7 -7 2 -15 20 -14 32 -10 82 7 82 4
0 11 16 15 36 4 19 13 38 20 41 8 3 14 11 14 19 0 8 4 22 9 32 5 9 19 38 30
65 12 26 26 47 31 47 6 0 10 7 10 15 0 7 6 18 13 22 7 4 18 19 25 33 26 52
105 172 130 198 6 7 12 19 12 25 0 14 34 47 100 97 25 19 47 38 48 43 2 4 34
21 70 38 37 17 136 65 220 105 83 41 154 74 157 74 2 0 33 13 68 29 34 16 114
46 176 66 98 32 122 37 175 32 59 -5 194 -57 259 -100 15 -9 28 -17 31 -17 11
0 96 -62 122 -89 73 -74 84 -87 84 -96 0 -5 13 -21 28 -35 35 -31 113 -151
147 -225 14 -30 29 -55 34 -55 23 0 153 -305 182 -430 35 -145 79 -499 79
-631 0 -37 3 -81 6 -98 l7 -31 3393 0 3394 0 -10 26 c-6 14 -8 30 -4 35 3 5
-8 26 -24 47 -23 29 -30 51 -35 102 -8 95 -13 108 -47 140 -16 15 -30 35 -30
43 0 8 -7 20 -16 27 -16 14 -54 87 -54 105 0 21 -54 95 -70 95 -16 1 -60 63
-60 85 0 8 -6 18 -13 22 -8 4 -25 33 -39 64 -14 32 -35 66 -47 78 -11 11 -23
32 -27 46 -3 14 -12 25 -19 25 -16 0 -25 22 -25 64 0 28 -5 35 -38 50 -20 9
-52 30 -71 46 -18 17 -38 30 -42 30 -5 0 -9 11 -9 25 0 15 -6 25 -15 25 -8 0
-19 17 -26 40 -7 22 -18 40 -26 40 -7 0 -13 10 -13 23 -1 25 -22 57 -39 57 -6
0 -11 16 -11 36 0 19 -7 42 -15 50 -8 9 -16 27 -16 42 -3 58 -18 109 -33 115
-15 6 -32 71 -42 161 -8 72 -55 156 -88 156 -15 0 -17 3 -8 9 15 9 14 79 -1
99 -5 7 -16 38 -23 70 -7 31 -18 58 -24 60 -5 2 -10 10 -10 18 0 8 -11 31 -24
52 -13 20 -32 62 -41 92 -10 30 -21 60 -25 65 -4 6 -10 39 -14 75 -4 36 -16
94 -27 130 -20 63 -38 157 -60 305 -13 82 -36 130 -56 113 -10 -8 -13 -6 -13
10 0 11 6 22 12 24 10 4 7 23 -10 82 -12 42 -20 82 -16 87 3 5 2 15 -3 22 -5
7 -10 37 -12 67 -1 30 -6 57 -10 60 -5 3 -11 22 -15 43 -4 20 -11 37 -16 37
-6 0 -15 20 -22 44 -7 28 -19 46 -30 49 -10 3 -19 11 -21 19 -2 7 -13 43 -25
80 -12 37 -22 81 -22 97 0 21 -5 31 -15 31 -10 0 -15 10 -15 33 0 17 -12 55
-25 82 -14 28 -25 59 -25 70 0 12 -5 26 -10 31 -6 6 -11 35 -13 66 -1 31 -5
54 -9 52 -9 -6 -34 33 -43 66 -3 14 -15 43 -25 65 -10 22 -30 67 -45 100 -15
33 -43 92 -62 130 -20 39 -33 80 -31 90 3 15 8 10 23 -23 10 -23 22 -42 27
-42 4 0 8 -9 8 -20 0 -11 6 -23 14 -26 7 -3 22 -25 32 -50 10 -24 22 -44 26
-44 4 0 8 -11 8 -25 0 -13 6 -28 13 -32 8 -4 18 -17 24 -27 9 -16 11 -13 14
22 3 27 1 38 -6 32 -7 -5 -10 13 -11 53 0 84 -13 157 -26 154 -16 -3 -27 48
-26 119 0 35 -4 69 -9 76 -14 17 -33 99 -33 139 0 18 -8 56 -17 85 -14 41 -23
54 -43 58 -14 2 -34 12 -45 21 -19 15 -17 16 28 10 55 -7 58 0 27 59 -14 29
-19 58 -18 111 0 40 -3 78 -7 85 -4 6 -11 39 -16 73 -5 34 -15 96 -24 137 -19
94 -19 110 0 110 18 0 19 12 3 28 -9 9 -9 17 2 36 10 19 11 45 5 103 -5 43 -9
92 -11 110 -1 18 -9 39 -17 48 -17 16 -22 47 -33 180 -3 44 -12 94 -19 111 -7
18 -10 36 -5 40 4 5 4 38 -1 74 -9 70 -27 253 -34 336 -2 27 -11 88 -20 133
-11 52 -15 103 -11 135 3 28 8 78 11 111 8 96 16 127 31 121 8 -3 14 1 14 9 0
8 5 15 10 15 6 0 10 -11 10 -24 0 -13 7 -29 15 -36 8 -7 12 -16 9 -21 -3 -5 0
-17 6 -28 6 -12 6 -22 1 -26 -6 -3 -6 -18 0 -38 13 -45 13 -44 -27 -51 -26 -5
-34 -11 -30 -22 3 -9 6 -18 6 -20 0 -2 5 -4 10 -4 6 0 10 7 10 15 0 8 5 15 10
15 12 0 13 -17 1 -24 -31 -19 -15 -120 20 -129 9 -3 22 -14 28 -26 10 -17 9
-20 -4 -15 -8 4 -16 2 -16 -2 -7 -57 -7 -74 1 -79 6 -3 7 -17 4 -31 -5 -19 -2
-24 11 -24 17 0 17 -1 2 -18 -12 -13 -13 -21 -4 -37 6 -11 12 -33 13 -50 1
-16 7 -31 13 -33 6 -2 11 -10 11 -17 0 -7 7 -25 15 -41 13 -25 13 -30 0 -44
-8 -9 -15 -29 -15 -44 0 -26 3 -28 30 -24 44 7 47 -8 5 -22 -44 -14 -46 -39
-7 -98 21 -34 31 -42 49 -37 29 7 60 -5 41 -16 -19 -12 -82 -11 -95 2 -8 8
-13 8 -18 0 -3 -6 1 -14 9 -17 9 -4 16 -18 16 -34 0 -16 5 -32 10 -35 6 -3 10
-17 10 -31 0 -13 6 -24 13 -24 6 0 26 -10 42 -21 l30 -21 -34 6 c-28 5 -32 4
-21 -9 6 -8 9 -19 5 -25 -4 -6 10 -10 39 -10 25 0 46 4 46 9 0 5 11 11 23 13
15 3 24 0 24 -9 0 -7 -11 -13 -24 -13 -16 0 -23 -6 -23 -20 0 -16 -6 -19 -37
-17 -28 1 -37 -2 -35 -12 2 -11 -3 -10 -24 3 -38 26 -51 8 -34 -46 8 -24 15
-55 16 -69 1 -15 10 -41 19 -58 9 -18 13 -40 10 -51 -6 -20 10 -37 20 -20 11
18 27 -1 21 -25 -4 -15 2 -29 19 -45 14 -13 23 -30 21 -37 -3 -7 -1 -13 5 -13
5 0 14 -11 18 -23 5 -13 23 -30 40 -37 46 -19 38 -30 -19 -28 -33 2 -50 7 -50
15 0 15 -36 18 -44 4 -3 -5 1 -11 9 -15 10 -3 15 -19 15 -48 0 -43 23 -116 47
-153 7 -11 13 -25 13 -33 0 -22 41 -106 56 -115 8 -4 14 -15 14 -23 0 -8 5
-12 10 -9 5 3 10 1 10 -4 0 -6 7 -11 15 -11 14 0 20 -17 16 -47 -1 -8 9 -13
24 -13 14 0 25 -4 25 -9 0 -5 16 -16 35 -25 35 -17 54 -36 36 -36 -5 0 -12 4
-15 9 -3 5 -17 11 -31 13 -22 5 -24 2 -19 -18 8 -33 -14 -31 -26 2 -7 17 -15
24 -25 20 -8 -3 -15 -1 -15 4 0 6 -7 10 -15 10 -8 0 -15 -3 -15 -6 0 -18 25
-101 33 -112 8 -10 7 -16 -2 -22 -10 -5 -11 -18 -7 -41 4 -19 10 -51 13 -72 4
-27 9 -37 19 -33 7 3 16 1 19 -4 3 -4 0 -10 -5 -12 -15 -5 11 -63 28 -63 6 0
11 -4 10 -10 -2 -5 -11 -9 -20 -8 -10 2 -18 -1 -18 -6 0 -19 23 -71 31 -71 5
0 9 -8 9 -17 0 -10 11 -38 25 -62 32 -54 31 -65 0 -26 l-25 30 0 -27 c0 -15 5
-30 10 -33 6 -3 10 -21 10 -38 -1 -31 -1 -31 -17 -12 -15 19 -15 19 -8 -10 3
-16 14 -38 22 -48 9 -9 13 -20 10 -24 -4 -3 0 -17 8 -29 8 -13 10 -24 5 -26
-6 -2 -1 -20 10 -43 11 -21 20 -46 20 -55 0 -18 40 -60 57 -60 7 0 15 -9 18
-20 3 -11 15 -25 26 -31 11 -5 17 -14 14 -19 -3 -4 1 -11 7 -14 7 -3 2 -3 -11
0 -29 7 -61 34 -61 51 0 7 -7 13 -15 13 -17 0 -18 -4 -6 -28 5 -9 13 -26 16
-37 l7 -20 8 20 c8 20 9 20 9 -1 2 -39 32 -54 94 -48 49 4 57 2 57 -12 0 -13
-3 -14 -15 -4 -12 10 -15 9 -15 -8 0 -11 8 -22 19 -25 14 -3 18 -11 14 -26 -5
-19 -2 -20 23 -15 23 4 34 0 53 -20 14 -14 32 -26 40 -26 9 -1 34 -7 56 -15
34 -12 43 -12 62 0 25 17 99 20 108 6 3 -5 19 -12 35 -16 17 -4 30 -11 30 -16
0 -5 7 -9 16 -9 8 0 23 -7 31 -16 12 -12 26 -14 52 -9 20 3 42 7 49 7 6 1 12
5 12 10 0 4 9 8 20 8 12 0 31 6 43 14 25 17 147 53 222 67 122 21 233 27 335
18 177 -17 272 -21 338 -14 l62 7 0 3314 0 3314 -576 0 c-457 0 -574 -3 -568
-12 4 -7 16 -23 26 -35 18 -20 19 -33 15 -185 -2 -89 -7 -174 -11 -188 -5 -21
-5 -22 3 -5 8 17 10 14 10 -17 1 -27 -3 -38 -14 -38 -8 0 -26 -20 -40 -43 -19
-34 -25 -57 -25 -105 0 -34 -4 -62 -9 -62 -5 0 -11 -7 -15 -15 -3 -9 0 -15 9
-15 8 0 15 7 15 15 0 11 12 15 44 15 55 0 86 32 86 91 0 33 -3 38 -27 42 -20
3 -15 4 15 6 36 1 42 -2 42 -19 0 -16 4 -18 23 -11 12 5 21 15 19 24 -1 8 11
20 28 27 16 7 39 28 51 46 32 53 61 44 98 -29 9 -17 26 -36 39 -42 17 -7 22
-18 22 -44 0 -33 -36 -101 -52 -101 -5 0 -8 -7 -8 -15 0 -9 -12 -28 -27 -43
-25 -25 -27 -25 -33 -7 -6 18 -8 18 -32 -8 -14 -15 -30 -27 -37 -27 -6 0 -11
-4 -11 -9 0 -8 -52 -31 -71 -31 -5 0 -9 9 -9 21 0 18 -5 20 -46 16 -37 -3 -49
-9 -65 -33 -10 -16 -19 -36 -19 -44 0 -15 -46 -60 -62 -60 -4 0 -8 -9 -8 -19
0 -28 -2 -29 -110 -50 -27 -6 -50 -17 -59 -30 -14 -22 -45 -28 -56 -11 -3 6 1
10 9 10 21 0 20 7 -4 37 -11 14 -20 38 -20 53 0 15 -8 38 -19 51 -18 22 -18
23 2 56 17 29 19 45 13 106 -4 49 -3 67 4 57 8 -12 10 -9 10 13 0 24 -4 27
-34 27 -18 0 -39 6 -45 13 -6 8 -29 22 -51 32 -22 10 -40 21 -40 25 0 4 -8 11
-17 14 -10 3 -29 13 -43 21 -16 9 -52 15 -101 15 -119 0 -199 11 -199 26 0 10
14 14 49 14 27 0 51 5 53 10 2 6 21 17 43 25 22 8 36 14 31 15 -16 0 37 41 88
67 27 14 55 31 62 38 29 29 73 207 74 298 l0 27 -777 0 -778 0 -34 -40 c-19
-22 -42 -40 -53 -40 -10 0 -29 -6 -41 -14 -28 -18 -115 -30 -188 -27 -30 1
-74 -4 -97 -12 -38 -13 -48 -13 -104 4 -34 11 -76 21 -95 24 -18 2 -41 9 -52
15 -27 14 -78 13 -84 -2 -3 -10 -9 -10 -26 0 -13 7 -60 12 -128 12 -60 0 -122
-5 -141 -12 -28 -10 -36 -10 -39 0 -6 15 -99 17 -108 2 -4 -6 -11 -8 -16 -5
-5 4 -9 1 -9 -4 0 -6 -7 -11 -15 -11 -8 0 -15 7 -15 15 0 8 -7 15 -15 15 -10
0 -15 -10 -15 -30 0 -16 -5 -51 -10 -78 -9 -42 -17 -52 -49 -70 -41 -23 -144
-31 -156 -12 -4 6 -10 8 -15 5 -27 -17 -30 63 -6 164 7 32 26 51 26 27 0 -9 4
-14 10 -11 6 3 10 24 10 46 l0 39 -1126 0 -1127 0 5 -50 c3 -28 1 -53 -3 -56
-14 -8 -11 -54 3 -54 9 0 9 -3 0 -12 -7 -7 -12 -27 -12 -44 0 -35 -37 -103
-57 -104 -6 0 -15 -10 -19 -22 -3 -12 -15 -30 -25 -41 -9 -11 -21 -37 -24 -58
-4 -22 -11 -39 -16 -39 -5 0 -10 -24 -10 -52 -1 -29 -3 -46 -6 -37 -3 11 -12
15 -28 11 -14 -2 -25 -8 -25 -13 0 -18 -128 -69 -175 -69 -25 0 -56 -5 -68
-11 -16 -9 -22 -9 -25 0 -2 7 -31 11 -78 11 -60 0 -78 -4 -94 -20 -11 -11 -32
-22 -47 -25 -16 -3 -43 -13 -61 -22 -27 -14 -35 -14 -41 -4 -6 10 -27 11 -82
6 l-74 -7 -34 36 c-39 40 -51 44 -51 18 0 -16 -7 -18 -46 -16 -38 2 -50 -2
-69 -22 -23 -25 -45 -32 -45 -13 0 19 -20 -2 -35 -38 -8 -19 -15 -57 -15 -84
0 -37 -4 -49 -15 -49 -10 0 -15 -10 -15 -29 0 -16 -6 -32 -12 -35 -10 -5 -10
-7 0 -12 6 -3 12 -14 12 -25 0 -17 -8 -19 -80 -19 -72 0 -80 2 -80 19 0 15 -9
20 -48 24 -26 3 -71 12 -100 21 -29 8 -88 20 -130 26 -84 11 -133 26 -172 52
-14 9 -44 22 -67 29 -39 11 -59 29 -33 29 6 0 10 18 10 40 0 23 5 40 11 40 15
0 2 68 -17 87 -8 8 -14 25 -14 39 0 14 -7 27 -15 30 -10 4 -15 20 -15 45 0 28
4 39 15 39 8 0 15 6 15 13 0 6 18 21 40 31 22 11 40 23 40 27 0 4 12 21 26 36
14 15 29 33 32 39 13 21 116 65 167 70 63 7 135 26 135 36 0 5 17 16 38 25 81
35 102 48 102 65 0 9 4 19 9 22 5 3 9 21 9 40 0 19 3 43 7 55 l6 21 -1065 0
-1066 0 0 -3655z m420 3210 c10 -3 21 -12 24 -20 8 -22 36 -18 36 5 0 11 4 20
8 20 5 0 17 -9 27 -20 10 -11 24 -20 32 -20 7 0 13 -9 13 -19 0 -10 7 -21 15
-25 8 -3 15 -12 15 -21 0 -9 9 -15 25 -15 16 0 25 -6 25 -15 0 -11 -11 -15
-40 -15 -29 0 -40 4 -40 15 0 11 -11 15 -39 15 l-40 0 -3 -47 c-2 -40 -6 -48
-23 -49 -11 -1 -28 -5 -37 -9 -16 -6 -18 0 -18 61 0 38 -2 101 -5 139 -2 39
-2 60 1 48 3 -12 14 -25 24 -28z m-53 -27 c-3 -7 -5 -2 -5 12 0 14 2 19 5 13
2 -7 2 -19 0 -25z m298 -149 c9 -26 -8 -44 -32 -34 -12 5 -14 9 -5 12 6 3 12
13 12 24 0 26 17 24 25 -2z m5542 -105 c-3 -3 -12 -4 -19 -1 -8 3 -5 6 6 6 11
1 17 -2 13 -5z m220 -101 c3 -7 -4 -9 -16 -6 -12 3 -18 9 -15 15 7 11 26 6 31
-9z m940 -39 c-3 -3 -12 -4 -19 -1 -8 3 -5 6 6 6 11 1 17 -2 13 -5z m-1047
-169 c18 4 39 1 57 -9 15 -8 22 -15 16 -16 -25 0 -12 -20 27 -40 44 -22 51
-31 20 -23 -11 3 -20 1 -20 -4 0 -11 37 -43 50 -43 6 0 10 -4 10 -9 0 -5 11
-12 24 -15 13 -3 31 -9 40 -12 12 -5 15 -2 10 10 -5 13 -2 15 12 10 11 -4 24
-10 29 -15 6 -4 33 -9 61 -10 42 -3 55 0 75 19 24 22 69 30 69 12 0 -5 -11
-10 -24 -10 -25 0 -43 -16 -32 -28 4 -3 16 -1 27 6 11 7 40 15 64 19 25 3 45
11 45 17 0 6 9 17 20 24 17 11 20 10 20 -7 0 -11 -7 -21 -16 -23 -13 -2 -12
-6 5 -25 12 -12 18 -29 15 -37 -4 -9 -1 -16 6 -16 7 0 18 -6 24 -14 6 -7 29
-20 52 -29 39 -15 41 -14 53 6 13 20 14 20 24 1 6 -10 11 -26 12 -34 0 -18 51
-44 72 -36 13 5 13 9 2 22 -11 13 -9 14 17 8 16 -4 37 -14 47 -22 13 -12 20
-13 29 -4 16 16 23 15 44 -5 9 -10 22 -18 28 -19 6 0 19 -2 29 -2 10 -1 15 -7
12 -12 -4 -6 -16 -10 -27 -8 -12 2 -23 -3 -25 -9 -3 -9 8 -13 34 -14 41 0 125
-15 108 -19 -22 -5 -42 -7 -89 -8 l-49 -2 23 -25 c13 -14 28 -25 34 -24 24 3
36 -2 53 -19 10 -10 31 -19 47 -20 36 -2 40 -6 32 -29 -7 -16 -9 -16 -19 -3
-14 17 -82 25 -91 11 -9 -15 38 -61 63 -61 11 0 21 3 21 8 0 4 11 7 25 7 14 0
25 -3 25 -7 0 -8 -15 -12 -37 -9 -6 1 -14 -3 -18 -9 -3 -5 -1 -10 4 -10 6 0
11 -7 11 -16 0 -12 6 -15 28 -10 26 6 26 6 8 -9 -11 -8 -18 -16 -15 -18 12
-10 238 15 334 37 130 29 245 43 230 28 -5 -6 -65 -17 -133 -26 -67 -8 -146
-23 -175 -32 -96 -30 -113 -34 -145 -34 -17 0 -34 -4 -37 -10 -4 -6 8 -10 30
-10 20 0 49 -7 64 -14 15 -8 38 -12 49 -9 15 4 22 1 22 -9 0 -18 41 -38 78
-39 22 0 24 -2 8 -8 -17 -6 -15 -9 12 -20 32 -13 62 -41 45 -41 -5 0 -13 4
-19 9 -27 25 -185 53 -184 33 1 -12 71 -52 91 -52 10 0 19 -6 19 -14 0 -7 8
-16 19 -19 19 -5 56 -66 45 -76 -3 -3 -8 -1 -12 5 -7 11 -45 34 -56 34 -12 0
-5 -18 16 -45 25 -32 30 -80 8 -80 -7 0 -15 -5 -17 -11 -4 -12 62 -24 138 -24
27 0 49 -4 49 -10 0 -5 -13 -7 -32 -3 -23 5 -34 2 -45 -12 -7 -11 -13 -14 -13
-9 0 6 -16 8 -35 6 -33 -4 -41 -22 -9 -22 8 0 22 -8 33 -19 22 -22 65 -18 183
20 74 23 99 39 61 39 -10 0 -25 5 -33 10 -11 7 -4 9 24 6 21 -3 41 -7 43 -10
13 -13 -23 -36 -97 -62 -44 -15 -80 -32 -80 -37 0 -5 24 -7 54 -5 30 1 52 0
49 -4 -2 -5 -15 -8 -28 -8 -13 0 -27 -4 -30 -10 -3 -5 -15 -10 -26 -10 -10 0
-29 -6 -40 -12 -17 -10 -23 -10 -26 0 -3 6 -12 12 -21 11 -10 0 -12 -3 -5 -5
7 -3 10 -11 7 -17 -2 -7 5 -23 16 -35 11 -12 19 -25 18 -29 0 -4 4 -21 11 -38
7 -16 12 -31 11 -33 0 -1 6 -10 15 -19 13 -13 30 -15 88 -10 58 6 68 4 52 -5
-11 -7 -46 -11 -78 -11 -55 1 -57 0 -51 -20 13 -41 108 -146 142 -158 17 -6
32 -14 32 -18 0 -14 -64 -3 -76 13 -17 24 -23 19 -15 -11 4 -16 6 -43 4 -60
-3 -38 4 -43 17 -10 8 21 9 21 9 -5 1 -16 -3 -28 -8 -28 -5 0 -7 -45 -5 -100
2 -58 -1 -100 -6 -100 -5 0 -16 -12 -24 -27 l-15 -28 -2 25 c-1 14 -1 28 0 33
0 4 -6 7 -14 7 -8 0 -15 -6 -16 -12 0 -10 -2 -10 -6 0 -10 24 -22 12 -13 -14
6 -14 10 -32 10 -40 0 -17 -17 -19 -23 -1 -2 6 -3 -1 -1 -18 3 -28 3 -29 -11
-11 -8 11 -15 32 -15 47 0 14 -7 32 -15 39 -8 7 -15 23 -15 36 0 14 -6 24 -14
24 -16 0 -26 -21 -26 -53 0 -18 2 -19 10 -7 8 13 10 12 10 -2 0 -10 -4 -18
-10 -18 -16 0 -30 36 -31 82 -1 47 -2 46 -19 -59 -6 -40 -17 -76 -22 -80 -8
-4 -9 4 -5 23 9 45 18 160 11 146 -3 -6 -10 -9 -16 -6 -5 4 -9 -4 -8 -17 4
-45 1 -56 -11 -37 -8 15 -13 16 -29 6 -16 -10 -22 -8 -39 13 l-20 24 -1 -26
c0 -15 -7 -30 -16 -33 -15 -6 -15 -8 0 -29 22 -31 47 -89 41 -95 -3 -3 -5 0
-5 7 0 9 -9 11 -29 6 -17 -4 -32 -2 -36 5 -4 6 -14 9 -23 6 -11 -3 -31 12 -57
44 -40 47 -75 69 -75 46 0 -7 5 -17 12 -24 6 -6 8 -15 4 -19 -5 -5 -18 5 -30
21 -11 17 -36 45 -54 64 -18 19 -31 36 -28 39 2 3 -18 25 -46 50 -66 58 -86
45 -36 -24 19 -26 45 -70 58 -97 21 -44 22 -49 7 -58 -22 -12 -21 -28 4 -85
12 -27 26 -57 30 -68 15 -38 38 -190 44 -293 3 -57 11 -115 16 -130 7 -18 9
-142 4 -379 -5 -231 -4 -353 2 -353 6 0 13 -52 16 -122 3 -73 15 -166 28 -228
20 -86 24 -132 23 -255 -2 -233 -42 -437 -143 -713 -26 -72 -53 -176 -81 -317
-19 -90 -76 -240 -123 -320 -7 -11 -25 -43 -41 -70 -16 -28 -32 -52 -35 -55
-3 -3 -13 -17 -21 -31 -33 -58 -104 -141 -251 -293 -85 -87 -156 -161 -159
-165 -9 -13 -170 -139 -182 -143 -7 -3 -8 -10 -4 -17 7 -11 10 -11 17 0 13 22
23 1 12 -24 -18 -36 -33 -88 -33 -114 0 -13 -9 -42 -20 -64 -13 -25 -24 -74
-30 -135 -5 -52 -13 -101 -18 -107 -5 -7 -12 -41 -16 -77 -16 -158 -25 -212
-40 -235 -9 -13 -16 -34 -16 -45 0 -11 -6 -30 -12 -41 -10 -17 -10 -23 0 -26
17 -6 15 -23 -3 -23 -8 0 -24 -13 -37 -30 -13 -18 -31 -30 -45 -30 -14 0 -23
-6 -23 -15 0 -8 -9 -24 -20 -35 -11 -11 -20 -27 -20 -35 0 -9 -20 -20 -54 -30
-30 -9 -57 -22 -60 -30 -11 -29 -51 -16 -98 32 -43 44 -47 54 -60 128 -11 59
-12 101 -6 160 17 144 9 228 -25 272 -13 17 -21 113 -9 113 5 0 14 17 20 38 7
20 25 51 42 69 16 18 30 36 30 41 0 15 59 39 113 47 26 3 64 13 85 22 80 32
182 85 182 94 0 5 8 9 18 9 17 1 62 32 62 44 0 3 -18 6 -40 6 -22 0 -40 -4
-40 -9 0 -16 -38 -19 -117 -10 -59 6 -82 13 -95 29 -9 11 -26 20 -37 20 -12 0
-21 6 -21 14 0 8 -11 23 -25 34 -14 11 -25 24 -25 28 0 5 -16 26 -35 47 -29
31 -42 37 -75 37 -40 0 -40 0 -40 -40 0 -22 5 -40 10 -40 21 0 9 -19 -26 -40
-35 -22 -36 -22 -75 -5 -21 10 -39 24 -39 32 0 7 -7 13 -15 13 -7 0 -18 6 -22
14 -4 7 -43 21 -85 31 -43 9 -78 21 -78 26 0 5 -8 9 -19 9 -10 0 -26 11 -35
25 -9 14 -21 25 -27 25 -6 0 -17 7 -25 15 -14 13 -13 15 5 15 14 0 21 6 21 20
0 12 7 20 18 21 96 3 145 9 173 22 19 8 79 18 134 22 138 9 298 31 322 43 29
16 47 65 34 90 -8 16 -6 25 10 46 12 15 18 34 15 43 -4 9 0 23 8 32 8 9 17 28
21 42 6 25 5 26 -52 34 -32 4 -73 8 -90 8 -18 0 -33 4 -33 9 0 4 -7 8 -16 8
-9 0 -18 9 -21 19 -4 16 -9 18 -29 11 -13 -5 -24 -7 -24 -5 0 3 0 8 0 13 0 4
4 7 10 7 5 0 17 10 26 23 9 13 22 21 30 18 7 -3 39 -1 71 4 32 5 73 11 91 12
17 1 32 6 32 10 0 4 16 10 35 14 19 3 35 9 35 13 -1 7 -81 64 -84 59 -18 -39
-26 -43 -87 -50 -35 -3 -79 -10 -97 -13 -50 -11 -162 4 -162 21 0 16 -31 19
-47 3 -5 -5 -43 -10 -83 -11 -89 -1 -106 13 -113 89 -4 39 -1 55 10 65 8 7 19
22 24 35 5 14 17 23 29 23 11 0 20 5 20 10 0 14 18 13 79 -6 39 -11 54 -21 62
-41 l9 -25 27 27 c35 35 69 51 112 54 27 1 41 -5 64 -30 16 -18 32 -28 35 -23
11 16 55 44 68 44 7 0 22 -16 34 -36 l22 -35 15 28 c17 34 52 62 75 63 22 0
38 -30 40 -75 2 -47 20 -29 20 19 0 20 4 36 8 36 5 0 8 -20 8 -45 0 -25 -3
-45 -8 -45 -4 0 -7 -8 -6 -17 0 -10 -4 -17 -10 -16 -7 1 -15 -17 -19 -42 -4
-29 -11 -45 -21 -45 -8 0 -14 -7 -14 -15 0 -19 19 -19 26 0 7 17 34 21 34 4 0
-6 13 -1 28 10 16 11 41 23 58 27 16 4 43 17 59 29 17 12 35 25 41 28 13 8 66
-38 56 -48 -4 -3 6 -1 21 4 16 6 37 11 48 11 22 0 59 -54 59 -86 0 -57 55 -50
84 10 9 19 21 38 26 41 6 3 10 13 10 20 0 21 47 120 62 132 7 6 32 14 55 18
23 3 44 13 47 20 2 7 15 15 28 17 15 2 24 11 26 27 2 13 10 31 19 39 34 35 46
65 46 118 0 46 -5 60 -28 84 -16 17 -34 30 -39 30 -17 0 -56 46 -56 64 0 9 -4
16 -10 16 -11 0 -150 136 -150 147 -1 4 -15 19 -32 33 -17 14 -45 39 -62 57
-23 23 -37 31 -53 27 -12 -3 -30 -1 -40 5 -10 6 -12 11 -5 11 41 1 -23 41 -88
55 -19 4 -43 14 -53 23 -15 13 -20 14 -26 3 -7 -10 -9 -10 -14 2 -4 11 -18 15
-44 13 -37 -2 -38 -3 -37 -42 1 -21 6 -57 12 -79 11 -40 5 -81 -20 -144 -17
-42 -18 -74 -3 -91 7 -8 25 -45 40 -83 15 -37 31 -70 36 -73 5 -3 9 -14 9 -25
0 -10 6 -28 12 -39 10 -16 10 -23 -5 -37 -25 -25 -188 -26 -282 -2 -38 10 -94
21 -124 23 -30 3 -56 7 -58 10 -2 2 16 13 40 25 60 29 89 58 82 82 -4 11 -2
19 4 19 6 0 11 6 11 13 1 15 46 67 58 67 18 0 105 87 98 99 -12 18 -28 13
-101 -34 -38 -25 -72 -45 -75 -45 -4 0 -17 20 -29 45 -12 24 -26 47 -32 50 -5
4 -9 15 -9 26 0 13 -7 19 -21 19 -42 0 -93 54 -113 119 -19 60 -30 73 -39 49
-9 -27 -32 13 -32 55 1 63 12 97 33 95 48 -4 49 -2 56 100 3 53 9 116 12 140
7 48 -2 96 -16 87 -18 -11 -16 108 2 217 8 50 8 78 -1 113 -11 43 -10 52 11
96 13 27 28 49 34 49 6 0 19 18 29 40 10 22 22 40 27 40 4 0 8 4 8 9 0 5 14
23 30 39 24 24 30 39 30 71 0 23 5 41 10 41 9 0 15 -59 10 -103 -1 -10 10 -27
24 -38 14 -11 26 -27 26 -36 0 -9 11 -26 25 -39 23 -21 25 -30 25 -114 0 -105
8 -126 51 -135 21 -5 34 -15 40 -34 5 -14 23 -32 39 -39 23 -11 30 -20 30 -43
0 -16 -4 -29 -10 -29 -5 0 -10 -7 -10 -16 0 -23 61 -74 88 -74 13 0 32 -10 42
-23 12 -15 39 -28 77 -37 32 -7 63 -19 69 -26 15 -19 71 -25 189 -23 166 2
159 1 137 19 -18 15 -18 16 4 33 13 9 28 17 33 17 6 0 11 5 11 10 0 6 -8 10
-17 10 -35 0 -167 58 -174 77 -12 30 -10 33 20 33 16 0 34 7 41 15 9 11 22 14
46 9 22 -4 34 -2 34 5 0 6 -9 11 -19 11 -10 0 -21 7 -25 15 -3 8 -13 15 -22
15 -8 0 -14 5 -12 11 5 15 78 23 78 9 0 -5 17 -10 37 -10 51 0 183 -44 183
-61 0 -15 71 -31 110 -24 34 6 66 25 43 25 -4 0 -19 9 -33 20 l-25 19 30 12
c26 11 27 13 10 17 -33 7 -47 24 -40 49 3 12 0 32 -7 43 -11 17 -10 22 2 30
13 9 13 12 -1 20 -9 5 -26 28 -38 50 -23 44 -23 45 -71 101 -16 20 -30 44 -30
52 0 9 -8 18 -17 20 -14 4 -12 5 5 6 15 1 22 7 22 21 0 11 6 23 14 26 21 8 9
30 -25 44 -16 7 -29 18 -29 25 0 12 -29 21 -95 30 -16 2 -52 10 -80 19 -47 14
-174 33 -294 43 -30 3 -69 14 -88 24 -18 10 -50 19 -69 19 -35 0 -36 1 -32 30
3 17 1 30 -3 30 -10 0 -49 -82 -49 -103 0 -9 -7 -17 -15 -17 -8 0 -15 9 -15
20 0 11 -4 20 -10 20 -5 0 -15 18 -21 40 -11 35 -16 40 -41 40 -30 0 -50 30
-50 78 0 12 -9 27 -19 33 -16 8 -19 6 -19 -13 0 -13 -9 -31 -20 -41 -11 -9
-20 -26 -20 -37 0 -11 -4 -20 -10 -20 -5 0 -10 -17 -10 -37 0 -48 -19 -83 -20
-38 -1 34 -30 75 -55 75 -9 0 -23 7 -31 15 -9 9 -34 15 -59 15 -38 0 -53 7
-107 51 -35 28 -75 57 -90 65 -16 8 -28 18 -28 23 0 9 -39 26 -82 35 -15 3
-33 12 -41 20 -7 8 -42 28 -78 46 -35 18 -65 36 -67 41 -2 5 -15 9 -29 9 -20
0 -23 4 -19 20 3 11 9 29 12 40 3 11 1 20 -4 20 -5 0 -12 18 -16 40 -3 22 -11
40 -16 40 -16 0 -11 26 9 44 14 13 20 38 25 102 8 96 6 100 -83 154 -23 13
-41 29 -41 35 0 7 -18 18 -40 25 -22 7 -40 19 -40 27 0 7 -11 13 -25 13 -14 0
-25 4 -25 9 0 5 -17 11 -37 15 -64 11 -161 59 -154 76 12 30 36 60 48 60 7 0
13 5 13 10 0 6 -4 10 -10 10 -5 0 -10 5 -10 10 0 12 37 50 49 50 5 0 14 6 20
14 8 9 24 12 50 9 23 -3 41 -1 45 6 4 6 0 11 -9 11 -9 0 -13 5 -9 11 4 7 21 9
41 6 37 -6 86 10 77 25 -3 5 0 8 7 7 27 -4 70 13 65 26 -3 10 19 15 87 20 51
4 95 12 99 18 4 7 39 10 88 9 45 -1 91 3 102 9 10 6 50 12 88 14 45 2 75 9 85
18 10 11 26 14 50 10 26 -4 36 -2 41 11 6 16 54 23 67 10 3 -4 49 -6 102 -5
79 2 95 0 95 -13 0 -26 147 -42 179 -19 17 11 26 12 34 4 19 -19 37 -12 49 17
l12 27 4 -27 c2 -16 7 -28 11 -28 5 0 6 11 3 25 -2 15 0 25 7 25 6 0 11 -4 11
-10 0 -5 5 -10 10 -10 7 0 7 6 0 19 -14 27 -13 31 9 31 11 0 23 -9 26 -20 8
-26 35 -27 28 -1 -3 13 2 23 16 31 12 6 19 15 16 20 -3 6 -2 17 3 25 7 14 12
13 33 -7 24 -23 59 -26 59 -6 0 5 6 8 13 5 12 -5 51 9 100 34 21 11 22 3 2
-17 -20 -21 -19 -36 3 -32 9 2 16 9 15 15 -1 6 11 14 27 18 17 4 30 13 30 21
0 17 5 17 31 4 27 -15 24 -40 -5 -40 -21 0 -56 -26 -45 -33 18 -13 115 -35
117 -27 2 6 10 10 17 10 23 0 28 20 10 40 -12 13 -13 20 -5 25 7 4 16 2 20 -5
6 -10 13 -8 30 8 24 22 21 52 -5 52 -22 0 -19 13 10 40 14 13 25 32 25 42 0
11 12 24 28 31 28 12 41 57 16 57 -20 0 -27 33 -10 46 9 6 16 17 16 23 0 7 4
10 9 7 5 -4 7 3 4 14 -3 11 -1 20 5 20 12 0 -21 72 -41 88 -8 7 -25 11 -38 10
-20 -3 -25 2 -29 30 -6 41 -23 43 -30 2 -6 -35 -23 -45 -28 -15 -2 11 -8 24
-12 28 -11 12 -50 -1 -50 -17 0 -8 -13 -13 -30 -14 -16 0 -30 3 -30 8 0 16
-59 70 -75 70 -9 0 -14 4 -11 9 3 5 16 7 29 4 28 -7 11 12 -19 21 -18 5 -22 1
-27 -24 -5 -23 -12 -30 -29 -30 -42 0 -152 21 -164 31 -7 6 -34 9 -61 7 -42
-3 -49 0 -58 20 -8 18 -15 21 -39 16 -23 -5 -28 -3 -23 8 4 12 -4 14 -46 10
-44 -4 -50 -3 -40 9 10 12 8 17 -7 27 -28 17 -140 4 -140 -16 0 -11 -8 -13
-32 -8 -39 8 -47 15 -28 26 8 5 11 12 8 15 -4 4 -17 0 -30 -9 -12 -9 -38 -16
-58 -16 -19 0 -60 -7 -90 -15 -59 -16 -106 -19 -52 -4 17 5 32 14 32 19 0 13
-17 13 -22 0 -2 -6 -39 -12 -83 -14 -89 -4 -131 -12 -160 -32 -26 -18 -65 -18
-65 0 0 8 7 12 18 10 20 -5 137 72 122 81 -5 3 -27 1 -47 -4 -48 -14 -56 -14
-47 1 4 6 3 8 -4 4 -6 -3 -24 -8 -41 -10 -24 -3 -31 0 -29 13 3 18 76 46 144
57 24 3 41 10 38 15 -5 9 47 14 94 10 37 -3 25 16 -15 25 -47 10 -86 7 -190
-15 -68 -15 -83 -15 -83 -4 0 7 -10 13 -22 13 -35 0 -142 -32 -153 -45 -6 -7
-32 -16 -58 -20 -38 -6 -46 -5 -42 7 7 17 266 84 385 99 47 6 92 14 100 17 8
2 46 6 85 9 38 2 74 9 80 15 7 7 2 9 -17 4 -15 -3 -49 -1 -75 4 -35 8 -60 8
-97 -1 -28 -7 -63 -13 -77 -13 -15 -1 -30 -4 -33 -7 -4 -3 -56 -4 -116 -2 -94
3 -110 2 -110 -12 0 -17 16 -21 22 -4 2 6 17 9 33 7 l30 -4 -40 -18 c-21 -10
-55 -20 -74 -22 -29 -4 -32 -3 -21 11 7 8 11 15 9 16 -2 0 -14 2 -26 3 -31 4
-42 16 -15 16 12 0 22 4 22 9 0 16 -36 22 -64 11 -15 -5 -42 -10 -59 -9 -27 0
-29 2 -12 9 14 6 0 9 -45 9 -36 0 -84 3 -106 6 -24 4 -44 3 -48 -3 -4 -6 8 -8
33 -5 23 3 41 1 45 -6 5 -7 -3 -11 -22 -11 -16 0 -47 -7 -67 -16 -30 -12 -35
-18 -24 -25 9 -7 4 -7 -16 -3 -16 4 -31 10 -33 14 -2 5 -15 4 -30 -1 -15 -4
-69 -21 -121 -36 -52 -15 -89 -29 -82 -31 16 -5 -6 -32 -26 -32 -8 0 -13 -5
-11 -11 2 -6 24 -13 48 -15 62 -5 148 -21 130 -24 -8 -1 -54 -3 -101 -4 -48
-1 -93 -7 -100 -13 -21 -16 -82 -24 -99 -13 -13 9 -13 11 0 19 8 6 12 13 8 16
-9 9 -50 -34 -43 -45 3 -5 -10 -12 -30 -16 -19 -3 -38 -10 -41 -15 -3 -5 -12
-9 -21 -9 -9 0 -25 -7 -35 -17 -23 -21 -36 -10 -14 12 23 23 20 33 -9 27 -31
-5 -32 4 -2 36 l22 25 -32 -19 c-18 -10 -33 -22 -33 -26 0 -4 -9 -8 -21 -8
-19 0 -105 -61 -121 -87 -5 -6 -28 -23 -52 -37 -24 -14 -46 -32 -49 -40 -3 -8
-14 -12 -24 -10 -13 4 -30 -7 -52 -31 -32 -35 -32 -37 -11 -42 28 -7 7 -23
-32 -23 -16 0 -28 -4 -28 -9 0 -5 -9 -11 -21 -14 -16 -4 -19 -11 -14 -26 4
-15 2 -21 -8 -21 -9 0 -28 -17 -44 -38 -16 -23 -34 -37 -42 -34 -10 3 -12 0
-8 -12 9 -23 -10 -67 -31 -73 -10 -2 -26 -17 -37 -34 -11 -16 -25 -29 -32 -29
-6 0 -22 -15 -34 -32 -13 -18 -27 -34 -31 -36 -4 -2 -8 -10 -8 -18 0 -8 -10
-14 -22 -14 -20 0 -18 4 16 39 32 33 39 47 40 83 1 47 26 84 45 65 7 -7 12 -5
17 9 7 19 83 93 97 94 14 0 7 30 -8 30 -27 0 -16 16 20 28 18 7 45 26 59 42
14 17 29 30 35 30 6 0 8 7 5 15 -4 10 0 15 14 15 24 0 38 16 20 22 -19 7 40
73 84 95 20 10 42 28 49 41 7 12 16 22 21 22 4 0 29 20 55 45 26 25 58 48 70
51 16 4 26 18 33 45 11 41 34 60 66 55 10 -2 13 -1 7 1 -20 7 -15 21 10 29 38
12 192 87 199 97 3 6 19 10 35 11 33 1 35 16 4 32 -19 10 -14 12 36 18 32 4
64 8 70 8 24 2 -8 28 -35 28 -14 0 -23 3 -19 6 3 4 -4 15 -16 25 -20 18 -20
19 -2 12 11 -3 26 -11 33 -16 9 -7 20 -6 36 2 13 7 34 11 47 8 l24 -4 -22 -8
c-27 -9 -30 -20 -7 -29 23 -9 59 -7 90 4 l28 11 -28 14 c-16 8 -36 15 -45 15
-13 1 -12 3 4 12 11 7 27 12 35 13 53 2 111 19 106 30 -6 17 76 28 86 12 5 -8
8 -7 8 4 0 9 -10 19 -22 22 -23 6 -116 -10 -133 -23 -12 -9 -50 4 -61 21 -5 9
-1 11 14 7 16 -5 22 -2 22 11 0 15 8 17 54 13 61 -5 80 10 36 28 -17 7 -30 16
-30 20 0 14 49 18 54 4 3 -7 14 -10 25 -7 12 3 27 1 34 -5 24 -20 325 -17 360
5 6 4 31 7 55 8 24 0 46 6 50 12 4 6 16 13 27 15 11 2 19 11 19 21 -2 19 -4
19 54 8 28 -6 65 -4 108 5 73 16 240 8 434 -20 101 -15 140 -14 140 3 0 13
-51 20 -100 15 -31 -4 -41 -3 -31 4 11 8 9 11 -10 15 -13 2 1 6 31 7 58 3 62
3 123 -7 20 -3 37 -2 37 2 0 4 -17 24 -37 44 -21 20 -34 30 -30 24 6 -9 3 -11
-8 -6 -11 4 -13 8 -5 13 16 10 1 38 -18 34 -9 -2 -28 5 -42 17 -24 19 -24 20
-2 9 13 -6 36 -8 52 -5z m-4060 -107 c8 12 25 22 37 22 12 0 23 4 25 9 2 4 25
11 51 13 36 4 50 2 54 -8 3 -8 16 -14 29 -14 17 0 24 -6 24 -20 0 -11 6 -20
13 -20 8 0 21 -8 30 -18 15 -16 14 -21 -4 -61 -10 -24 -19 -51 -20 -60 0 -12
-2 -12 -9 4 -8 20 -9 20 -9 -1 -1 -12 -12 -33 -26 -48 -14 -15 -25 -31 -25
-35 0 -5 -7 -14 -15 -21 -12 -10 -15 -10 -15 4 0 18 -15 22 -25 6 -20 -32
-140 13 -170 65 -18 30 -27 125 -13 125 5 0 8 7 8 15 0 8 5 15 11 15 7 0 9 10
7 25 -3 14 -1 25 3 25 5 0 10 19 11 43 1 32 3 27 7 -23 6 -62 7 -64 21 -42z
m4280 86 c0 -2 -7 -4 -15 -4 -8 0 -15 4 -15 10 0 5 7 7 15 4 8 -4 15 -8 15
-10z m-300 -9 l35 -13 -35 -1 c-19 0 -46 6 -60 14 l-25 14 25 0 c14 0 41 -7
60 -14z m250 -22 l25 -14 -25 7 c-41 11 -70 23 -70 29 0 8 39 -4 70 -22z
m-1210 7 c0 -5 -7 -10 -16 -10 -8 0 -12 5 -9 10 3 6 10 10 16 10 5 0 9 -4 9
-10z m-3127 -121 c-4 -4 -6 13 -3 39 l5 47 3 -39 c2 -21 0 -42 -5 -47z m4902
50 c25 -12 50 -30 56 -40 9 -17 5 -17 -43 5 -29 14 -61 27 -70 30 -22 7 -24
26 -3 26 8 0 36 -10 60 -21z m-405 -9 c0 -5 -5 -10 -11 -10 -5 0 -7 5 -4 10 3
6 8 10 11 10 2 0 4 -4 4 -10z m-1702 -72 c-6 -18 -28 -21 -28 -4 0 9 7 16 16
16 9 0 14 -5 12 -12z m-2788 -58 c0 -5 -2 -10 -4 -10 -3 0 -8 5 -11 10 -3 6
-1 10 4 10 6 0 11 -4 11 -10z m2475 -230 c-3 -5 -11 -10 -16 -10 -6 0 -7 5 -4
10 3 6 11 10 16 10 6 0 7 -4 4 -10z m2960 -80 c3 -6 -1 -7 -9 -4 -18 7 -21 14
-7 14 6 0 13 -4 16 -10z m-3080 -10 c-3 -5 -13 -10 -21 -10 -8 0 -12 5 -9 10
3 6 13 10 21 10 8 0 12 -4 9 -10z m750 -25 c-39 -13 -113 -20 -103 -10 7 7 87
23 118 23 19 0 15 -3 -15 -13z m-225 -36 c0 -14 -41 -48 -58 -49 -7 0 -10 5
-6 11 4 8 -1 9 -17 5 -20 -6 -21 -5 -6 4 9 6 21 8 27 5 5 -3 14 4 20 15 11 21
40 28 40 9z m300 -9 c0 -5 -8 -10 -17 -10 -15 0 -16 2 -3 10 19 12 20 12 20 0z
m-65 -40 c-4 -6 13 -10 44 -10 28 0 51 -4 51 -10 0 -5 -10 -10 -22 -10 l-23 0
25 -20 c37 -29 4 -26 -54 5 -52 28 -88 32 -108 12 -7 -8 -36 -16 -63 -19 -28
-3 -41 -4 -31 -1 15 4 16 7 5 14 -10 6 -7 9 11 9 14 0 52 9 85 19 70 22 89 25
80 11z m385 5 c0 -4 -48 -18 -105 -29 -30 -6 -30 -6 5 13 31 17 100 28 100 16z
m-733 -21 c-3 -3 -12 -4 -19 -1 -8 3 -5 6 6 6 11 1 17 -2 13 -5z m-37 -8 c0
-2 -7 -9 -15 -16 -13 -11 -14 -10 -9 4 5 14 24 23 24 12z m2977 -2 c-3 -3 -12
-4 -19 -1 -8 3 -5 6 6 6 11 1 17 -2 13 -5z m-2792 -54 c3 -5 -1 -10 -9 -10 -8
0 -18 5 -21 10 -3 6 1 10 9 10 8 0 18 -4 21 -10z m184 -23 c-13 -5 -37 -13
-54 -17 -16 -4 -38 -11 -49 -15 -14 -6 -17 -4 -14 6 5 16 106 48 127 41 10 -4
7 -8 -10 -15z m371 16 c-1 -20 -18 -32 -55 -37 -39 -6 -39 -5 -7 4 45 15 40
23 -10 16 l-43 -6 40 14 c46 16 75 19 75 9z m790 -39 c0 -2 -12 -4 -27 -4 -21
0 -24 3 -14 9 13 8 41 5 41 -5z m-320 -24 c0 -5 -4 -10 -10 -10 -5 0 -10 5
-10 10 0 6 5 10 10 10 6 0 10 -4 10 -10z m-1684 -15 c-23 -17 -36 -19 -36 -6
0 5 10 12 23 14 12 2 24 5 27 5 3 1 -4 -5 -14 -13z m164 5 c0 -5 -4 -10 -10
-10 -5 0 -10 -7 -10 -15 0 -8 -4 -15 -10 -15 -13 0 -13 6 0 31 11 20 30 26 30
9z m60 0 c0 -5 -5 -10 -11 -10 -5 0 -7 5 -4 10 3 6 8 10 11 10 2 0 4 -4 4 -10z
m750 -10 c0 -5 -12 -10 -27 -10 -22 0 -25 2 -13 10 20 13 40 13 40 0z m-960
-49 c0 -5 -7 -12 -16 -15 -14 -5 -15 -4 -4 9 14 17 20 19 20 6z m3719 -77 c2
-2 -7 -4 -22 -4 -14 0 -29 5 -32 10 -6 10 42 4 54 -6z m141 -26 c59 -19 49
-27 -12 -11 -69 17 -78 21 -50 22 12 1 40 -5 62 -11z m-5370 -280 c7 -2 6 -16
-5 -41 -8 -20 -11 -37 -6 -37 5 0 12 -15 15 -34 5 -26 0 -48 -20 -91 l-27 -56
-46 3 -46 3 -3 48 c-2 28 2 55 9 63 14 18 15 95 1 120 -16 28 10 46 53 38 24
-4 35 -3 35 6 0 7 5 6 15 -3 8 -9 19 -17 25 -19z m716 -28 c8 0 14 -4 14 -10
0 -11 -49 -14 -74 -4 -29 11 -17 27 15 20 17 -3 38 -6 45 -6z m74 -4 c0 -3 -4
-8 -10 -11 -5 -3 -10 -1 -10 4 0 6 5 11 10 11 6 0 10 -2 10 -4z m30 -24 c0
-10 -22 -32 -32 -32 -5 0 -3 9 4 20 13 20 28 27 28 12z m-45 -52 c-3 -5 -10
-10 -16 -10 -5 0 -9 5 -9 10 0 6 7 10 16 10 8 0 12 -4 9 -10z m3492 -6 c-3 -3
-12 -4 -19 -1 -8 3 -5 6 6 6 11 1 17 -2 13 -5z m-3530 -36 c-3 -8 -6 -5 -6 6
-1 11 2 17 5 13 3 -3 4 -12 1 -19z m-25 -16 c-13 -4 -17 -23 -4 -21 37 6 42
-13 7 -29 -26 -12 -88 -5 -83 9 5 14 73 56 83 51 5 -3 4 -7 -3 -10z m45 -54
c-3 -8 -6 -5 -6 6 -1 11 2 17 5 13 3 -3 4 -12 1 -19z m-37 -98 c0 -5 -4 -10
-10 -10 -5 0 -10 5 -10 10 0 6 5 10 10 10 6 0 10 -4 10 -10z m-1210 -8 c0 -11
57 -72 68 -72 5 0 15 -18 22 -40 7 -22 19 -40 27 -40 7 0 13 -7 13 -15 0 -19
8 -29 75 -95 27 -28 57 -50 67 -50 12 0 18 -8 18 -24 0 -16 7 -27 20 -31 11
-3 20 -11 20 -16 0 -5 16 -9 35 -9 34 0 35 2 36 38 1 20 1 41 0 46 -4 21 34
76 54 76 25 1 75 44 75 65 0 11 11 15 40 15 36 0 40 -2 40 -25 0 -28 56 -135
71 -135 5 0 9 -7 9 -15 0 -8 10 -25 22 -37 l22 -22 -24 -7 -25 -6 28 -12 c30
-12 28 -31 -4 -31 -10 0 -19 -7 -19 -15 0 -8 -9 -15 -20 -15 -11 0 -20 -5 -20
-11 0 -5 -10 -24 -22 -42 -21 -29 -27 -32 -66 -29 -24 2 -58 13 -77 26 -19 13
-55 27 -79 30 -40 6 -75 26 -47 26 6 0 11 9 11 20 0 16 -7 20 -37 20 -50 0
-123 36 -123 61 0 25 -16 24 -37 -1 -10 -11 -23 -20 -30 -20 -7 0 -13 -6 -13
-14 0 -9 -17 -15 -51 -18 -91 -9 -149 15 -149 63 0 12 -5 51 -12 87 -10 56
-16 67 -45 86 -18 11 -33 27 -33 35 0 20 42 81 56 81 6 0 20 18 33 40 16 30
29 40 47 40 13 0 24 -3 24 -8z m1060 -42 c0 -5 -7 -10 -16 -10 -8 0 -12 5 -9
10 3 6 10 10 16 10 5 0 9 -4 9 -10z m110 -44 c0 -16 -18 -31 -27 -22 -8 8 5
36 17 36 5 0 10 -6 10 -14z m-140 -66 c12 -8 11 -10 -7 -10 -13 0 -23 5 -23
10 0 13 11 13 30 0z m-200 -120 c0 -11 -7 -20 -15 -20 -15 0 -21 21 -8 33 12
13 23 7 23 -13z m1760 -5 c0 -8 -4 -15 -9 -15 -13 0 -22 16 -14 24 11 11 23 6
23 -9z m-178 -77 c-7 -7 -12 -8 -12 -2 0 14 12 26 19 19 2 -3 -1 -11 -7 -17z
m3264 -34 c-11 -7 -22 -12 -25 -9 -2 3 4 12 15 19 10 8 21 12 24 9 3 -2 -4
-11 -14 -19z m-31 -35 c11 -17 0 -20 -21 -4 -17 13 -17 14 -2 15 9 0 20 -5 23
-11z m-280 -19 c3 -5 1 -10 -4 -10 -6 0 -11 5 -11 10 0 6 2 10 4 10 3 0 8 -4
11 -10z m235 -55 c18 -11 11 -27 -10 -20 -22 7 -26 -5 -8 -23 9 -9 7 -12 -9
-12 -16 0 -22 8 -27 36 -4 19 -13 37 -21 40 -7 3 -16 13 -20 22 -5 14 -4 14
13 -1 26 -23 42 -21 43 6 1 19 3 18 15 -10 7 -17 18 -34 24 -38z m89 18 c3 -2
-1 -9 -7 -15 -9 -9 -12 -9 -12 0 0 7 -9 12 -20 12 -11 0 -20 5 -20 10 0 9 47
4 59 -7z m11 -90 c0 -7 -4 -13 -10 -13 -5 0 -10 7 -10 15 0 9 -9 15 -22 15
-23 1 -23 1 -3 16 18 13 21 13 32 -3 7 -9 13 -23 13 -30z m33 -46 c3 -8 1 -20
-4 -28 -5 -9 -9 -9 -9 -2 0 6 -3 18 -6 27 -3 9 -2 16 4 16 5 0 12 -6 15 -13z
m-73 -91 c0 -11 -19 -15 -25 -6 -3 5 1 10 9 10 9 0 16 -2 16 -4z m-33 -213
c-3 -10 -5 -2 -5 17 0 19 2 27 5 18 2 -10 2 -26 0 -35z m-2901 -153 c6 -6 30
-16 55 -24 l44 -14 -66 -1 c-58 -1 -67 2 -72 18 -8 30 17 43 39 21z m-176 -31
c0 -5 -24 -8 -52 -7 -51 1 -51 2 -10 5 23 2 42 9 42 14 0 6 5 7 10 4 6 -3 10
-10 10 -16z m3333 -16 c-7 -2 -21 -2 -30 0 -10 3 -4 5 12 5 17 0 24 -2 18 -5z
m-3545 -11 c18 -12 -30 -32 -58 -25 -22 6 -22 7 -5 20 21 15 44 17 63 5z
m-2848 -52 c0 -16 -4 -30 -9 -30 -5 0 -23 -3 -40 -6 -24 -5 -31 -3 -31 10 0 9
6 16 13 16 7 0 20 9 30 20 24 28 37 25 37 -10z m2745 20 c-3 -5 -10 -10 -16
-10 -5 0 -9 5 -9 10 0 6 7 10 16 10 8 0 12 -4 9 -10z m3505 -44 c0 -9 -40 -13
-46 -5 -3 5 6 9 20 9 14 0 26 -2 26 -4z m-5930 -291 c0 -8 8 -15 18 -15 29 0
62 -46 62 -85 0 -27 -7 -39 -32 -59 -29 -21 -39 -23 -77 -16 -25 4 -50 6 -57
3 -7 -2 -15 4 -18 15 -4 11 -18 32 -32 47 -24 27 -25 28 -9 61 9 19 21 34 26
34 6 0 17 7 25 15 9 8 33 15 55 15 28 0 39 -4 39 -15z m6240 -205 l25 -8 -25
-1 c-14 0 -32 4 -40 9 -13 9 -13 10 0 9 8 -1 26 -5 40 -9z m13 -67 c-7 -2 -21
-2 -30 0 -10 3 -4 5 12 5 17 0 24 -2 18 -5z m-60 -183 c20 -1 20 -2 4 -11 -20
-11 -57 -3 -57 13 0 5 7 7 16 4 9 -3 25 -6 37 -6z m-1532 -24 c-10 -11 -8 -15
6 -19 14 -4 13 -5 -4 -6 -25 -1 -29 9 -11 27 17 17 23 15 9 -2z m-2101 -109
c0 -24 60 -34 143 -24 54 6 85 6 100 -1 42 -20 92 -31 182 -37 66 -5 95 -12
110 -25 11 -10 29 -20 40 -22 20 -3 63 -69 64 -100 1 -9 6 -18 12 -20 9 -3 9
-9 1 -23 -6 -11 -13 -28 -16 -37 -3 -10 -15 -18 -26 -18 -11 0 -20 -4 -20 -10
0 -5 -10 -10 -21 -10 -12 0 -37 -13 -56 -30 -20 -18 -45 -30 -61 -30 -15 0
-45 -9 -67 -20 -22 -11 -57 -20 -80 -21 -30 0 -35 -2 -20 -9 17 -6 15 -8 -15
-13 -75 -12 -140 -16 -140 -7 0 5 -12 22 -26 39 -22 26 -33 31 -72 31 -49 0
-112 18 -112 33 0 5 -16 0 -36 -12 -29 -18 -38 -19 -49 -8 -7 7 -45 19 -84 26
l-71 13 0 34 c0 23 -5 34 -15 34 -8 0 -20 9 -27 20 -7 11 -18 20 -25 20 -7 0
-13 5 -13 10 0 6 3 10 8 10 4 0 20 12 37 27 16 15 38 26 48 25 11 -2 17 1 13
6 -4 6 1 27 11 46 13 29 22 36 45 36 15 0 28 -4 28 -9 0 -5 13 -19 29 -30 l29
-21 25 21 c15 11 30 19 34 17 4 -2 9 10 11 25 2 15 13 38 25 51 24 26 57 33
57 13z m3645 -167 c3 -5 1 -10 -4 -10 -6 0 -11 5 -11 10 0 6 2 10 4 10 3 0 8
-4 11 -10z m-121 -121 c-3 -5 0 -9 5 -9 6 0 11 -9 11 -19 0 -11 9 -41 20 -67
13 -28 17 -51 12 -56 -12 -12 -47 45 -57 89 -3 18 -11 35 -16 38 -5 4 -9 14
-9 25 0 13 5 17 20 13 11 -3 17 -9 14 -14z m56 -244 c0 -17 -2 -17 -10 -5 -5
8 -10 24 -10 35 0 17 2 17 10 5 5 -8 10 -24 10 -35z m-2715 -46 l20 0 -20 -9
c-34 -15 -65 -12 -65 6 0 12 6 15 23 10 12 -3 31 -6 42 -7z m2760 -39 c3 -5 1
-10 -4 -10 -6 0 -11 5 -11 10 0 6 2 10 4 10 3 0 8 -4 11 -10z m75 -235 c0 -8
-4 -15 -10 -15 -5 0 -10 7 -10 15 0 8 5 15 10 15 6 0 10 -7 10 -15z m-50 -76
c0 -11 -4 -17 -10 -14 -5 3 -10 15 -10 26 0 11 5 17 10 14 6 -3 10 -15 10 -26z
m96 -34 c7 -22 13 -49 13 -60 -1 -16 -2 -15 -8 5 -5 14 -15 40 -24 57 -20 38
-21 46 -6 41 6 -2 17 -22 25 -43z m-441 -84 c3 -5 1 -12 -5 -16 -5 -3 -10 1
-10 9 0 18 6 21 15 7z m105 -101 c0 -5 -2 -10 -4 -10 -3 0 -8 5 -11 10 -3 6
-1 10 4 10 6 0 11 -4 11 -10z m-2765 -122 c-3 -79 -3 -78 -13 -78 -9 0 -52 72
-52 88 0 6 12 10 27 9 22 -2 29 3 31 21 6 42 10 22 7 -40z m160 -1 c18 -15 24
-28 20 -40 -4 -9 -11 -17 -16 -17 -5 0 -9 -7 -9 -16 0 -30 -22 -8 -41 41 -23
60 -23 55 0 55 11 0 32 -10 46 -23z m2995 -106 c11 -22 30 -47 42 -55 29 -21
15 -33 -15 -13 -23 15 -57 73 -57 96 0 20 9 11 30 -28z m4 -105 c20 -5 32 -3
37 6 7 10 9 9 9 -4 0 -11 8 -18 18 -18 10 0 22 -4 28 -9 5 -5 20 -12 34 -14
14 -3 -2 -3 -36 -1 -62 4 -144 36 -144 55 0 8 4 8 13 2 6 -6 25 -13 41 -17z
m256 -26 c-20 -13 -67 -13 -75 0 -4 6 12 10 42 10 35 0 44 -3 33 -10z m-6370
-132 c0 -16 -3 -19 -11 -11 -6 6 -8 16 -5 22 11 17 16 13 16 -11z m3645 -18
c3 -5 1 -10 -4 -10 -6 0 -11 5 -11 10 0 6 2 10 4 10 3 0 8 -4 11 -10z m-5830
-190 c10 -11 15 -20 10 -20 -4 0 -3 -6 2 -12 6 -7 10 -20 11 -28 0 -8 5 -30
10 -47 l11 -33 -53 0 c-50 0 -53 1 -70 36 -15 33 -15 39 -1 60 8 13 15 32 15
44 0 27 41 27 65 0z m1835 -140 c54 -48 25 -49 -59 -3 -7 4 8 33 17 33 5 0 23
-13 42 -30z m225 -40 c3 -6 -1 -13 -10 -16 -19 -8 -30 0 -20 15 8 14 22 14 30
1z m-120 -39 c-3 -6 13 -11 36 -13 24 -2 44 -8 46 -15 3 -8 -9 -8 -48 1 -49
10 -80 36 -44 36 9 0 14 -4 10 -9z m235 -11 c0 -11 -30 -21 -41 -14 -20 12 -9
31 16 26 14 -2 25 -8 25 -12z m-353 -16 c-3 -3 -12 -4 -19 -1 -8 3 -5 6 6 6
11 1 17 -2 13 -5z m466 -12 c3 9 8 10 16 3 8 -8 2 -20 -19 -44 -17 -18 -30
-37 -30 -44 0 -8 -3 -8 -12 1 -17 17 10 96 28 82 8 -8 13 -7 17 2z m-258 -32
c4 -6 -7 -10 -27 -9 -31 1 -32 1 -8 9 14 4 26 8 27 9 1 1 5 -3 8 -9z m-235
-54 c0 -3 -4 -8 -10 -11 -5 -3 -10 -1 -10 4 0 6 5 11 10 11 6 0 10 -2 10 -4z
m125 -16 c3 -5 13 -6 23 -3 9 3 14 3 10 -2 -4 -4 -35 -9 -70 -11 -42 -3 -58
-1 -48 5 8 5 17 8 21 5 4 -2 10 0 14 6 8 13 42 13 50 0z m6349 -254 c9 -19 16
-39 16 -45 0 -6 7 -11 15 -11 8 0 15 -7 15 -15 0 -8 -4 -15 -8 -15 -7 0 -7
-67 -1 -125 5 -42 -1 -115 -10 -115 -5 0 -11 23 -15 50 -4 28 -11 50 -16 50
-6 0 -10 7 -10 15 0 8 -11 25 -25 39 l-24 24 6 -30 c4 -22 3 -29 -5 -24 -7 4
-12 30 -12 57 0 35 3 48 11 43 9 -5 10 10 5 56 -6 47 -4 65 6 71 24 15 35 10
52 -25z m-69 -56 c3 -5 1 -10 -4 -10 -6 0 -11 5 -11 10 0 6 2 10 4 10 3 0 8
-4 11 -10z m-227 -192 c-1 -46 -2 -49 -9 -23 -7 25 -3 75 7 75 1 0 2 -24 2
-52z m-8 -114 c0 -8 -4 -12 -10 -9 -5 3 -10 13 -10 21 0 8 5 12 10 9 6 -3 10
-13 10 -21z m-5786 -52 c-4 -12 -10 -22 -15 -22 -10 0 -12 21 -3 45 9 24 24 4
18 -23z m-537 -48 c-3 -3 -12 -4 -19 -1 -8 3 -5 6 6 6 11 1 17 -2 13 -5z m492
-38 c-11 -24 -29 -36 -29 -18 0 12 31 54 36 49 3 -2 -1 -16 -7 -31z m-52 -13
c14 -28 3 -53 -23 -53 -7 0 -15 -10 -17 -22 -4 -23 -4 -23 -6 -1 0 12 6 29 15
38 13 13 14 21 6 41 -9 18 -9 24 1 24 6 0 18 -12 24 -27z m-67 -78 c0 -8 -4
-15 -9 -15 -13 0 -22 16 -14 24 11 11 23 6 23 -9z m-62 -32 c-10 -2 -18 -9
-18 -14 0 -5 -18 -9 -39 -9 -22 0 -41 -5 -44 -12 -2 -7 -8 -9 -13 -5 -12 11
16 27 48 27 15 0 30 5 33 10 3 6 16 9 28 9 17 -1 18 -2 5 -6z m-122 -40 c21
-28 17 -35 -16 -28 -30 7 -39 -2 -20 -21 16 -16 -33 -64 -65 -64 -21 0 -43 8
-74 28 -3 1 5 10 18 18 21 15 21 17 4 30 -20 15 -21 15 55 18 20 0 37 8 43 19
6 9 17 17 26 17 9 0 22 -8 29 -17z m-191 -103 c3 -5 0 -7 -8 -4 -8 3 -18 1
-22 -5 -3 -6 -23 -11 -43 -10 l-37 1 40 13 c50 17 62 18 70 5z m70 -29 c3 -5
-2 -16 -10 -24 -22 -22 -19 -27 15 -27 17 0 30 -5 30 -10 0 -7 -13 -8 -37 -3
-21 4 -78 7 -127 6 -92 -2 -156 14 -156 39 0 10 2 10 9 -1 5 -8 33 -18 63 -22
45 -6 59 -3 97 17 24 13 48 21 54 17 16 -10 47 -11 47 -2 0 4 -7 9 -15 13 -8
3 -15 10 -15 16 0 12 35 -3 45 -19z m-199 -106 c-36 -19 -47 -19 -22 0 11 8
27 15 35 15 9 0 3 -7 -13 -15z m84 -40 c-7 -8 -17 -15 -22 -15 -6 0 -5 7 2 15
7 8 17 15 22 15 6 0 5 -7 -2 -15z m-60 -20 c-7 -8 -22 -15 -33 -15 -25 0 -12
16 18 23 11 3 22 5 24 6 2 0 -2 -6 -9 -14z m4180 -9 c0 -3 -4 -8 -10 -11 -5
-3 -10 -1 -10 4 0 6 5 11 10 11 6 0 10 -2 10 -4z m-4284 -41 c-10 -8 -23 -12
-28 -9 -14 9 2 24 25 24 21 -1 21 -1 3 -15z m-213 -42 c-7 -2 -19 -2 -25 0 -7
3 -2 5 12 5 14 0 19 -2 13 -5z m4497 3 c0 -11 -19 -15 -25 -6 -3 5 1 10 9 10
9 0 16 -2 16 -4z m2649 -228 c1 -5 -3 -8 -7 -8 -11 0 -102 183 -101 206 0 16
107 -178 108 -198z m-6814 32 c3 -5 -3 -10 -15 -10 -12 0 -18 5 -15 10 3 6 10
10 15 10 5 0 12 -4 15 -10z m6842 -102 c-3 -8 -6 -5 -6 6 -1 11 2 17 5 13 3
-3 4 -12 1 -19z m23 -25 c0 -5 -5 -15 -10 -23 -7 -12 -9 -10 -7 8 1 19 17 33
17 15z m-3376 -43 c27 -10 84 -58 120 -99 110 -128 136 -165 136 -190 0 -12 4
-21 9 -21 5 0 13 -9 16 -20 3 -11 12 -20 19 -20 8 0 16 -13 20 -30 3 -18 12
-30 21 -30 21 0 102 -56 113 -78 5 -9 8 -22 5 -28 -2 -6 6 -19 17 -29 15 -14
20 -31 20 -72 0 -29 4 -53 9 -53 14 0 -17 -57 -35 -64 -8 -3 -12 -10 -9 -16 4
-6 -3 -26 -15 -45 -25 -41 -35 -42 -185 -20 -172 26 -504 111 -550 141 -18 12
-21 26 -23 96 -2 46 -5 91 -8 100 -3 10 -1 25 5 35 8 16 10 14 16 -10 4 -15
13 -27 21 -27 8 0 14 -6 14 -13 0 -7 14 -23 30 -37 17 -14 30 -35 30 -47 0
-36 18 -36 22 -1 2 27 7 33 28 33 17 0 26 -7 31 -25 4 -14 7 -19 8 -12 1 8 7
28 15 45 24 54 36 99 36 131 -1 28 -2 29 -14 14 -7 -10 -16 -18 -18 -18 -3 0
-9 26 -13 58 -4 31 -11 64 -15 72 -4 8 -11 44 -14 80 -6 57 -5 69 13 89 11 12
23 36 26 52 4 16 13 29 21 29 8 0 14 9 14 20 0 22 23 26 64 10z m3397 -20 c5
0 9 -7 9 -16 0 -14 -3 -14 -15 -4 -8 7 -14 22 -14 34 1 17 2 17 6 4 2 -10 9
-18 14 -18z m-3541 -82 c0 -5 -4 -8 -10 -8 -5 0 -10 10 -10 23 0 18 2 19 10 7
5 -8 10 -18 10 -22z m-342 -283 c1 -1 8 -33 16 -71 8 -40 14 -57 15 -40 1 36
22 96 33 96 5 0 11 -7 14 -15 4 -8 10 -13 15 -10 14 9 26 -25 45 -123 21 -110
16 -118 -55 -96 -25 8 -49 14 -54 14 -4 0 -12 11 -17 25 -10 27 -27 33 -32 11
-2 -12 -9 -11 -38 2 -32 16 -35 22 -47 87 -16 95 -16 98 8 114 16 10 23 10 29
1 5 -8 9 -7 14 5 4 12 12 14 28 9 13 -3 24 -7 26 -9z m-218 -35 c0 -13 -5 -18
-15 -14 -8 4 -15 12 -15 20 0 8 7 14 15 14 8 0 15 -9 15 -20z m43 -15 c-3 -9
-8 -14 -10 -11 -3 3 -2 9 2 15 9 16 15 13 8 -4z m-3 -37 c0 -4 -4 -8 -10 -8
-5 0 -10 -9 -10 -20 0 -11 7 -20 15 -20 8 0 15 5 15 11 0 5 5 7 10 4 13 -8 13
-45 0 -45 -21 0 -59 32 -54 45 3 7 0 16 -6 20 -9 6 -9 9 -1 15 16 9 41 9 41
-2z m-40 -28 c0 -5 -7 -10 -16 -10 -8 0 -12 5 -9 10 3 6 10 10 16 10 5 0 9 -4
9 -10z m-3780 -615 c0 -7 -6 -20 -14 -28 -8 -8 -17 -29 -19 -48 -2 -19 -3 -8
-1 24 2 32 6 63 10 68 7 12 24 1 24 -16z"/>
<path d="M6362 9155 c-11 -13 -9 -15 10 -15 13 0 33 -3 46 -6 13 -4 22 -2 22
5 0 6 -9 11 -20 11 -11 0 -20 5 -20 10 0 15 -23 11 -38 -5z"/>
<path d="M6725 9110 c3 -5 15 -10 26 -10 10 0 19 5 19 10 0 6 -12 10 -26 10
-14 0 -23 -4 -19 -10z"/>
<path d="M6580 9095 c7 -8 19 -15 27 -15 13 0 13 3 3 15 -7 8 -19 15 -27 15
-13 0 -13 -3 -3 -15z"/>
<path d="M6790 9072 c0 -14 41 -53 50 -47 9 6 8 24 -3 43 -9 13 -47 17 -47 4z"/>
<path d="M6874 9072 c3 -6 0 -13 -6 -15 -10 -4 -10 -6 0 -6 6 -1 12 -11 12
-23 0 -17 11 -28 40 -42 22 -11 40 -24 40 -29 0 -6 9 -1 20 11 11 12 20 28 20
37 0 23 -31 51 -65 59 -16 4 -38 9 -49 13 -11 3 -16 1 -12 -5z"/>
<path d="M5263 9063 c9 -2 25 -2 35 0 9 3 1 5 -18 5 -19 0 -27 -2 -17 -5z"/>
<path d="M7080 8982 c0 -16 47 -34 69 -27 36 11 25 28 -14 21 -22 -4 -35 -3
-35 4 0 5 -4 10 -10 10 -5 0 -10 -4 -10 -8z"/>
<path d="M7287 8974 c6 -15 23 -19 23 -5 0 5 -7 11 -14 14 -10 4 -13 1 -9 -9z"/>
<path d="M7005 8940 c-3 -5 1 -10 9 -10 9 0 16 5 16 10 0 6 -4 10 -9 10 -6 0
-13 -4 -16 -10z"/>
<path d="M7250 8906 c0 -2 11 -6 25 -8 14 -3 25 -1 25 3 0 5 -11 9 -25 9 -14
0 -25 -2 -25 -4z"/>
<path d="M5625 8859 c-33 -17 -49 -28 -35 -25 14 2 43 7 65 11 22 3 51 9 65
11 24 5 24 6 6 20 -27 19 -32 18 -101 -17z"/>
<path d="M5522 8870 c-49 -11 -51 -20 -4 -20 23 0 42 5 42 10 0 6 10 8 24 4
13 -3 27 -1 30 5 8 13 -41 13 -92 1z"/>
<path d="M5208 8833 c6 -2 18 -2 25 0 6 3 1 5 -13 5 -14 0 -19 -2 -12 -5z"/>
<path d="M7398 8833 c6 -2 18 -2 25 0 6 3 1 5 -13 5 -14 0 -19 -2 -12 -5z"/>
<path d="M5271 8821 c-11 -7 -10 -10 5 -14 51 -15 142 -16 189 -2 l50 15 -117
-3 c-64 -2 -115 0 -112 5 7 10 3 10 -15 -1z"/>
<path d="M5663 8823 c9 -2 23 -2 30 0 6 3 -1 5 -18 5 -16 0 -22 -2 -12 -5z"/>
<path d="M5935 8810 c3 -5 20 -10 36 -10 18 0 28 4 24 10 -3 6 -20 10 -36 10
-18 0 -28 -4 -24 -10z"/>
<path d="M6250 8816 c0 -2 9 -6 20 -9 11 -3 18 -1 14 4 -5 9 -34 13 -34 5z"/>
<path d="M7240 8810 c0 -5 5 -10 10 -10 6 0 10 5 10 10 0 6 -4 10 -10 10 -5 0
-10 -4 -10 -10z"/>
<path d="M5720 8800 l-25 -8 25 -3 c27 -2 36 -2 125 10 l60 8 -80 1 c-44 0
-91 -4 -105 -8z"/>
<path d="M7290 8801 c-29 -8 -19 -17 33 -26 20 -4 40 -11 43 -16 8 -14 24 -11
24 5 0 16 -43 47 -62 45 -7 -1 -24 -4 -38 -8z"/>
<path d="M5070 8780 c0 -5 4 -10 9 -10 6 0 13 5 16 10 3 6 -1 10 -9 10 -9 0
-16 -4 -16 -10z"/>
<path d="M5470 8775 c0 -8 6 -15 14 -15 7 0 19 7 26 15 11 13 8 15 -14 15 -16
0 -26 -5 -26 -15z"/>
<path d="M6098 8783 c6 -2 18 -2 25 0 6 3 1 5 -13 5 -14 0 -19 -2 -12 -5z"/>
<path d="M6003 8703 c9 -2 23 -2 30 0 6 3 -1 5 -18 5 -16 0 -22 -2 -12 -5z"/>
<path d="M5708 8693 c7 -3 16 -2 19 1 4 3 -2 6 -13 5 -11 0 -14 -3 -6 -6z"/>
<path d="M7578 8663 c7 -3 16 -2 19 1 4 3 -2 6 -13 5 -11 0 -14 -3 -6 -6z"/>
<path d="M6059 8656 c-8 -8 -136 -26 -190 -28 -81 -1 -35 -18 51 -17 60 0 84
5 120 24 25 13 40 24 34 25 -6 0 -13 -2 -15 -4z"/>
<path d="M4550 8639 c0 -5 5 -7 10 -4 6 3 10 8 10 11 0 2 -4 4 -10 4 -5 0 -10
-5 -10 -11z"/>
<path d="M6105 8630 c-3 -5 -2 -10 4 -10 5 0 13 5 16 10 3 6 2 10 -4 10 -5 0
-13 -4 -16 -10z"/>
<path d="M5758 8613 c7 -3 16 -2 19 1 4 3 -2 6 -13 5 -11 0 -14 -3 -6 -6z"/>
<path d="M7694 8569 c12 -8 25 -8 40 -1 18 9 16 11 -19 11 -33 0 -37 -1 -21
-10z"/>
<path d="M4510 8550 c0 -5 5 -10 10 -10 6 0 10 5 10 10 0 6 -4 10 -10 10 -5 0
-10 -4 -10 -10z"/>
<path d="M6848 8443 c6 -2 18 -2 25 0 6 3 1 5 -13 5 -14 0 -19 -2 -12 -5z"/>
<path d="M7780 8430 c0 -5 5 -10 11 -10 5 0 7 5 4 10 -3 6 -8 10 -11 10 -2 0
-4 -4 -4 -10z"/>
<path d="M7710 8422 c0 -17 28 -45 38 -38 8 4 5 13 -8 26 -21 21 -30 25 -30
12z"/>
<path d="M4105 8386 c-43 -35 -27 -39 19 -5 21 16 33 29 25 29 -8 0 -27 -11
-44 -24z"/>
<path d="M7776 8335 c-3 -8 -3 -15 0 -15 3 0 12 7 20 15 13 13 13 15 1 15 -8
0 -17 -7 -21 -15z"/>
<path d="M7810 8320 c-13 -8 -12 -10 3 -10 9 0 17 5 17 10 0 12 -1 12 -20 0z"/>
<path d="M7800 8170 c0 -5 5 -10 10 -10 6 0 10 5 10 10 0 6 -4 10 -10 10 -5 0
-10 -4 -10 -10z"/>
<path d="M7920 8000 c9 -47 29 -75 43 -61 6 6 4 15 -6 25 -8 9 -18 29 -22 46
-10 45 -23 36 -15 -10z"/>
<path d="M3785 8010 c4 -6 11 -8 16 -5 14 9 11 15 -7 15 -8 0 -12 -5 -9 -10z"/>
<path d="M7415 7950 c-3 -5 3 -10 15 -10 12 0 18 5 15 10 -3 6 -10 10 -15 10
-5 0 -12 -4 -15 -10z"/>
<path d="M7975 7900 c-3 -6 1 -7 9 -4 18 7 21 14 7 14 -6 0 -13 -4 -16 -10z"/>
<path d="M7177 7884 c-12 -12 4 -24 31 -24 26 1 26 1 8 15 -22 17 -30 18 -39
9z"/>
<path d="M7280 7750 c0 -12 7 -20 16 -20 8 0 22 -7 30 -15 17 -17 34 -20 34
-6 0 5 -9 12 -19 16 -10 3 -21 15 -24 25 -7 26 -37 26 -37 0z"/>
<path d="M7992 7730 c7 -11 21 -20 30 -20 16 0 16 2 -2 20 -11 11 -25 20 -30
20 -6 0 -5 -8 2 -20z"/>
<path d="M7465 7680 c10 -11 24 -20 31 -20 7 0 15 -6 17 -12 4 -9 6 -9 6 -1 1
13 -46 53 -62 53 -6 0 -2 -9 8 -20z"/>
<path d="M8020 7679 c0 -5 9 -9 20 -9 11 0 20 2 20 4 0 2 -9 6 -20 9 -11 3
-20 1 -20 -4z"/>
<path d="M8058 7625 c2 -19 8 -35 14 -35 13 0 6 63 -8 67 -6 2 -8 -10 -6 -32z"/>
<path d="M7950 7635 c0 -8 5 -15 10 -15 6 0 10 7 10 15 0 8 -4 15 -10 15 -5 0
-10 -7 -10 -15z"/>
<path d="M7974 7586 c-12 -30 0 -61 24 -61 12 0 22 5 22 10 0 6 -6 10 -12 10
-18 0 -28 17 -22 38 6 20 -4 23 -12 3z"/>
<path d="M7600 7560 c0 -5 5 -10 10 -10 6 0 10 5 10 10 0 6 -4 10 -10 10 -5 0
-10 -4 -10 -10z"/>
<path d="M7636 7528 c3 -12 15 -31 26 -42 l20 -21 -11 23 c-8 14 -8 22 -1 22
6 0 6 7 -2 20 -18 28 -41 26 -32 -2z"/>
<path d="M7770 7520 c0 -14 5 -18 17 -13 10 4 14 2 9 -5 -3 -6 -2 -13 4 -17 6
-4 10 4 10 18 0 14 -7 28 -16 31 -23 9 -24 8 -24 -14z"/>
<path d="M7997 7463 c-12 -12 -7 -30 8 -30 8 0 15 9 15 19 0 18 -11 24 -23 11z"/>
<path d="M7690 7330 c0 -5 4 -10 9 -10 6 0 13 5 16 10 3 6 -1 10 -9 10 -9 0
-16 -4 -16 -10z"/>
<path d="M5520 6980 c0 -13 11 -13 30 0 12 8 11 10 -7 10 -13 0 -23 -4 -23
-10z"/>
<path d="M7078 5553 c6 -2 18 -2 25 0 6 3 1 5 -13 5 -14 0 -19 -2 -12 -5z"/>
<path d="M5887 3484 c-14 -15 -6 -34 14 -34 14 0 19 5 17 17 -3 18 -20 27 -31
17z"/>
<path d="M4880 5516 c0 -9 5 -16 10 -16 6 0 10 4 10 9 0 6 -4 13 -10 16 -5 3
-10 -1 -10 -9z"/>
<path d="M8532 3080 c0 -14 2 -19 5 -12 2 6 2 18 0 25 -3 6 -5 1 -5 -13z"/>
<path d="M2030 2470 c0 -5 11 -10 25 -10 14 0 25 5 25 10 0 6 -11 10 -25 10
-14 0 -25 -4 -25 -10z"/>
<path d="M5290 1356 c0 -9 5 -16 10 -16 6 0 10 4 10 9 0 6 -4 13 -10 16 -5 3
-10 -1 -10 -9z"/>
<path d="M5311 1194 c0 -11 3 -14 6 -6 3 7 2 16 -1 19 -3 4 -6 -2 -5 -13z"/>
<path d="M8010 7090 c0 -5 5 -10 11 -10 5 0 7 5 4 10 -3 6 -8 10 -11 10 -2 0
-4 -4 -4 -10z"/>
<path d="M8000 7025 c0 -8 7 -15 16 -15 14 0 14 3 4 15 -7 8 -14 15 -16 15 -2
0 -4 -7 -4 -15z"/>
<path d="M8022 6751 c2 -7 7 -12 11 -12 12 1 9 15 -3 20 -7 2 -11 -2 -8 -8z"/>
<path d="M8100 5551 c0 -12 5 -21 10 -21 6 0 10 6 10 14 0 8 -4 18 -10 21 -5
3 -10 -3 -10 -14z"/>
<path d="M8200 5537 c0 -28 25 -87 36 -87 10 0 -7 73 -22 94 -14 20 -14 20
-14 -7z"/>
<path d="M8231 5334 c0 -11 3 -14 6 -6 3 7 2 16 -1 19 -3 4 -6 -2 -5 -13z"/>
<path d="M8320 4980 c0 -5 7 -10 16 -10 8 0 12 5 9 10 -3 6 -10 10 -16 10 -5
0 -9 -4 -9 -10z"/>
<path d="M8345 4914 c4 -11 12 -31 17 -46 13 -37 29 -26 18 12 -5 17 -9 34 -9
38 0 4 -8 9 -17 11 -13 2 -15 -1 -9 -15z"/>
<path d="M8481 4394 c0 -11 3 -14 6 -6 3 7 2 16 -1 19 -3 4 -6 -2 -5 -13z"/>
<path d="M8430 4311 c0 -5 5 -13 10 -16 6 -3 10 -2 10 4 0 5 -4 13 -10 16 -5
3 -10 2 -10 -4z"/>
<path d="M8323 4207 c4 -10 7 -23 7 -28 0 -5 5 -9 10 -9 15 0 12 20 -7 38 -16
16 -16 16 -10 -1z"/>
<path d="M8484 4145 c5 -11 11 -40 14 -65 5 -40 20 -70 36 -70 11 0 6 35 -9
64 -8 15 -15 35 -15 43 0 8 -8 22 -17 31 -16 16 -16 16 -9 -3z"/>
<path d="M8576 3903 c-6 -14 -5 -15 5 -6 7 7 10 15 7 18 -3 3 -9 -2 -12 -12z"/>
<path d="M8686 3812 c-9 -9 -7 -22 3 -22 6 0 22 -11 37 -25 14 -13 31 -22 37
-18 7 4 2 12 -11 21 -12 8 -22 20 -22 27 0 13 -35 27 -44 17z"/>
<path d="M1920 3549 c0 -5 5 -7 10 -4 6 3 10 8 10 11 0 2 -4 4 -10 4 -5 0 -10
-5 -10 -11z"/>
<path d="M2371 3432 c-1 -9 -12 -12 -33 -10 -19 2 -33 -2 -35 -9 -3 -8 4 -13
17 -13 20 0 21 -1 4 -17 -17 -17 -17 -18 5 -21 34 -5 56 5 42 21 -7 10 -7 17
0 24 6 6 9 17 6 25 -4 11 -6 11 -6 0z"/>
<path d="M9306 3391 c-13 -15 -24 -18 -40 -11 -23 8 -127 6 -236 -6 -45 -5
-70 -13 -81 -26 -10 -11 -23 -16 -33 -12 -9 3 -18 0 -20 -7 -16 -54 -15 -53
-34 -35 -23 20 -50 22 -33 2 13 -16 -4 -26 -47 -27 l-27 0 25 -11 c21 -9 22
-12 7 -15 -28 -7 -14 -27 24 -34 19 -4 28 -7 20 -8 -19 -1 47 -51 68 -51 9 0
29 -7 45 -15 15 -8 37 -15 47 -15 10 0 20 -4 23 -9 3 -4 34 -18 68 -31 79 -29
185 -80 266 -129 102 -63 225 -190 329 -341 45 -66 63 -83 63 -60 0 6 5 10 10
10 6 0 10 -11 10 -25 0 -23 2 -24 20 -15 11 6 20 8 20 4 0 -3 6 -2 13 3 14 12
-7 11 310 12 l257 1 0 345 0 345 -26 10 c-14 6 -30 7 -35 4 -13 -8 -510 -6
-575 2 -55 7 -90 9 -185 12 l-66 2 -61 61 c-34 33 -66 58 -71 55 -5 -4 -16 3
-24 14 -14 20 -14 20 -31 1z"/>
<path d="M2460 3331 c0 -5 -15 -16 -32 -25 l-33 -17 43 3 c23 2 42 -1 42 -6 0
-5 2 -7 5 -4 9 8 -6 58 -16 58 -5 0 -9 -4 -9 -9z"/>
<path d="M8778 3313 c7 -3 16 -2 19 1 4 3 -2 6 -13 5 -11 0 -14 -3 -6 -6z"/>
<path d="M2337 3185 c-5 -53 5 -108 24 -129 5 -6 9 1 9 17 0 15 -3 27 -7 27
-5 0 -7 31 -5 70 3 83 -13 94 -21 15z"/>
<path d="M2115 2840 c-18 -8 -17 -9 7 -9 15 -1 30 4 33 9 7 12 -12 12 -40 0z"/>
<path d="M2188 2773 c7 -3 16 -2 19 1 4 3 -2 6 -13 5 -11 0 -14 -3 -6 -6z"/>
<path d="M2225 2760 c3 -5 8 -10 11 -10 2 0 4 5 4 10 0 6 -5 10 -11 10 -5 0
-7 -4 -4 -10z"/>
<path d="M2290 2760 c0 -5 5 -10 10 -10 6 0 10 5 10 10 0 6 -4 10 -10 10 -5 0
-10 -4 -10 -10z"/>
<path d="M2320 2749 c0 -5 5 -7 10 -4 6 3 10 8 10 11 0 2 -4 4 -10 4 -5 0 -10
-5 -10 -11z"/>
<path d="M2290 2720 c0 -5 5 -10 10 -10 6 0 10 5 10 10 0 6 -4 10 -10 10 -5 0
-10 -4 -10 -10z"/>
<path d="M9861 2313 c-1 -7 15 -44 34 -82 19 -37 35 -72 35 -77 0 -5 27 -65
59 -134 138 -291 223 -506 331 -834 27 -82 52 -151 55 -154 3 -3 5 272 5 610
l0 615 -162 7 c-90 3 -193 9 -230 12 -62 6 -68 5 -68 -12 -1 -19 -1 -19 -11 0
-9 14 -8 20 2 27 10 6 6 9 -13 9 -14 0 -29 6 -31 13 -4 9 -6 9 -6 0z"/>
<path d="M978 839 c-17 -18 -17 -20 2 -39 27 -27 30 -26 30 20 0 44 -6 48 -32
19z"/>
<path d="M1825 630 c-3 -5 -1 -10 4 -10 6 0 11 5 11 10 0 6 -2 10 -4 10 -3 0
-8 -4 -11 -10z"/>
</g>
</svg>
